<svg width="31" height="31" viewBox="0 0 31 31" fill="none" xmlns="http://www.w3.org/2000/svg">
<path d="M28.0121 20.9575L23.7703 20.4732C23.2715 20.4146 22.7659 20.4698 22.2915 20.6347C21.8172 20.7995 21.3863 21.0698 21.0314 21.4251L17.9586 24.4979C13.2177 22.0868 9.36423 18.2333 6.95307 13.4924L10.0426 10.4028C10.7607 9.68472 11.1114 8.6827 10.9945 7.66397L10.5102 3.45548C10.4156 2.6408 10.0246 1.88938 9.41175 1.3443C8.79892 0.799216 8.00704 0.498539 7.18688 0.499514H4.29773C2.4106 0.499514 0.840771 2.06935 0.957673 3.95649C1.84279 18.2186 13.2491 29.6083 27.4944 30.4934C29.3816 30.6103 30.9514 29.0404 30.9514 27.1533V24.2641C30.9681 22.5774 29.6989 21.1579 28.0121 20.9575Z" fill="#FF31F7"/>
</svg>
