<svg width="50" height="50" viewBox="0 0 50 50" fill="none" xmlns="http://www.w3.org/2000/svg">
<path fill-rule="evenodd" clip-rule="evenodd" d="M34.1291 14.5832L37.9674 22.2597L43.75 26.1148V33.3332H41.311C40.453 30.9057 38.138 29.1665 35.4167 29.1665C32.6954 29.1665 30.3803 30.9057 29.5223 33.3332H20.4777C19.6197 30.9057 17.3046 29.1665 14.5833 29.1665C11.8621 29.1665 9.54697 30.9057 8.68898 33.3332H6.25001V14.5832H34.1291ZM43.75 37.4998H41.311C40.453 39.9273 38.138 41.6665 35.4167 41.6665C32.6954 41.6665 30.3803 39.9273 29.5223 37.4998H20.4777C19.6197 39.9273 17.3046 41.6665 14.5833 41.6665C11.8621 41.6665 9.54697 39.9273 8.68898 37.4998H6.25001C3.94882 37.4998 2.08334 35.6344 2.08334 33.3332V14.5832C2.08334 12.282 3.94882 10.4165 6.25001 10.4165H34.1291C35.7073 10.4165 37.1501 11.3082 37.8559 12.7198L41.1993 19.4066L47.9167 23.8849V33.3332C47.9167 35.6344 46.0512 37.4998 43.75 37.4998ZM16.6667 35.4165C16.6667 36.5671 15.7339 37.4998 14.5833 37.4998C13.4328 37.4998 12.5 36.5671 12.5 35.4165C12.5 34.2659 13.4328 33.3332 14.5833 33.3332C15.7339 33.3332 16.6667 34.2659 16.6667 35.4165ZM37.5 35.4165C37.5 36.5671 36.5673 37.4998 35.4167 37.4998C34.2661 37.4998 33.3333 36.5671 33.3333 35.4165C33.3333 34.2659 34.2661 33.3332 35.4167 33.3332C36.5673 33.3332 37.5 34.2659 37.5 35.4165Z" fill="white"/>
</svg>
