<svg width="50" height="50" viewBox="0 0 50 50" fill="none" xmlns="http://www.w3.org/2000/svg">
<path fill-rule="evenodd" clip-rule="evenodd" d="M8.79548 41.2047C6.87004 39.2793 6.31765 36.3422 6.92149 32.4885C3.76954 30.1905 2.08334 27.7232 2.08334 25.0002C2.08334 22.2772 3.76954 19.8098 6.92149 17.5118C6.31765 13.6581 6.87004 10.7211 8.79548 8.79563C10.7209 6.87019 13.658 6.3178 17.5116 6.92164C19.8096 3.7697 22.277 2.0835 25 2.0835C27.723 2.0835 30.1904 3.7697 32.4884 6.92164C36.3421 6.3178 39.2791 6.87019 41.2045 8.79563C43.13 10.7211 43.6824 13.6581 43.0785 17.5118C46.2305 19.8098 47.9167 22.2772 47.9167 25.0002C47.9167 27.7232 46.2305 30.1905 43.0785 32.4885C43.6824 36.3422 43.13 39.2793 41.2045 41.2047C39.2791 43.1301 36.3421 43.6825 32.4884 43.0787C30.1904 46.2306 27.723 47.9168 25 47.9168C22.277 47.9168 19.8096 46.2306 17.5116 43.0787C13.658 43.6825 10.7209 43.1301 8.79548 41.2047ZM18.0262 38.746C18.8719 38.5648 19.7415 38.9251 20.2115 39.6511C22.0464 42.4862 23.6826 43.7502 25 43.7502C26.3174 43.7502 27.9536 42.4862 29.7885 39.6511C30.2585 38.9251 31.1281 38.5648 31.9738 38.746C35.276 39.4532 37.3267 39.19 38.2583 38.2584C39.1898 37.3269 39.453 35.2761 38.7458 31.9739C38.5647 31.1283 38.9249 30.2586 39.651 29.7887C42.486 27.9538 43.75 26.3176 43.75 25.0002C43.75 23.6827 42.486 22.0465 39.651 20.2116C38.9249 19.7417 38.5647 18.8721 38.7458 18.0264C39.453 14.7242 39.1898 12.6735 38.2583 11.7419C37.3267 10.8103 35.276 10.5472 31.9738 11.2544C31.1281 11.4355 30.2585 11.0753 29.7885 10.3492C27.9536 7.51416 26.3174 6.25016 25 6.25016C23.6826 6.25016 22.0464 7.51416 20.2115 10.3492C19.7415 11.0753 18.8719 11.4355 18.0262 11.2544C14.7241 10.5472 12.6733 10.8103 11.7418 11.7419C10.8102 12.6735 10.547 14.7242 11.2542 18.0264C11.4353 18.8721 11.0751 19.7417 10.3491 20.2116C7.51401 22.0465 6.25001 23.6827 6.25001 25.0002C6.25001 26.3176 7.51401 27.9538 10.3491 29.7887C11.0751 30.2586 11.4353 31.1283 11.2542 31.9739C10.547 35.2761 10.8102 37.3269 11.7418 38.2584C12.6733 39.19 14.7241 39.4532 18.0262 38.746ZM31.8602 17.277L22.9167 26.2206L18.1398 21.4437L15.1935 24.39L22.9167 32.1131L34.8065 20.2233L31.8602 17.277Z" fill="white"/>
</svg>
