<svg width="31" height="31" viewBox="0 0 31 31" fill="none" xmlns="http://www.w3.org/2000/svg">
<path d="M17.4929 0.501357C18.5875 0.497157 19.6821 0.508158 20.7764 0.534357L21.0674 0.544857C21.4034 0.556857 21.7349 0.571857 22.1354 0.589857C23.7314 0.664857 24.8204 0.916858 25.7759 1.28736C26.7659 1.66836 27.5999 2.18436 28.4339 3.01836C29.1964 3.76777 29.7866 4.67428 30.1634 5.67486C30.5339 6.63036 30.7859 7.72086 30.8609 9.31686C30.8789 9.71586 30.8939 10.0489 30.9059 10.3849L30.9149 10.6759C30.9415 11.7696 30.953 12.8638 30.9494 13.9579L30.9509 15.0769V17.0419C30.9546 18.1365 30.9431 19.2311 30.9164 20.3254L30.9074 20.6164C30.8954 20.9524 30.8804 21.2839 30.8624 21.6844C30.7874 23.2804 30.5324 24.3694 30.1634 25.3249C29.7879 26.3265 29.1975 27.2338 28.4339 27.9829C27.6838 28.7453 26.7768 29.3355 25.7759 29.7124C24.8204 30.0829 23.7314 30.3349 22.1354 30.4099C21.7349 30.4279 21.4034 30.4429 21.0674 30.4549L20.7764 30.4639C19.6821 30.4905 18.5875 30.502 17.4929 30.4984L16.3739 30.4999H14.4104C13.3158 30.5036 12.2212 30.4921 11.1269 30.4654L10.8359 30.4564C10.4798 30.4435 10.1238 30.4284 9.76788 30.4114C8.17188 30.3364 7.08288 30.0814 6.12588 29.7124C5.1249 29.3364 4.21823 28.7461 3.46938 27.9829C2.70595 27.2333 2.11521 26.3262 1.73838 25.3249C1.36788 24.3694 1.11588 23.2804 1.04088 21.6844C1.02417 21.3284 1.00917 20.9724 0.995878 20.6164L0.988378 20.3254C0.960723 19.2311 0.948222 18.1365 0.950878 17.0419V13.9579C0.946691 12.8638 0.957692 11.7697 0.983878 10.6759L0.994378 10.3849C1.00638 10.0489 1.02138 9.71586 1.03938 9.31686C1.11438 7.71936 1.36638 6.63186 1.73688 5.67486C2.11394 4.67379 2.70582 3.76752 3.47088 3.01986C4.21922 2.25599 5.12532 1.66472 6.12588 1.28736C7.08288 0.916858 8.17038 0.664857 9.76788 0.589857L10.8359 0.544857L11.1269 0.537358C12.2207 0.509717 13.3148 0.497215 14.4089 0.499857L17.4929 0.501357ZM15.9509 8.00136C14.9571 7.9873 13.9705 8.17089 13.0483 8.54146C12.1262 8.91202 11.2868 9.46218 10.5791 10.1599C9.87144 10.8577 9.30948 11.6892 8.92591 12.606C8.54234 13.5228 8.34481 14.5068 8.34481 15.5006C8.34481 16.4944 8.54234 17.4784 8.92591 18.3952C9.30948 19.3121 9.87144 20.1435 10.5791 20.8413C11.2868 21.539 12.1262 22.0892 13.0483 22.4598C13.9705 22.8303 14.9571 23.0139 15.9509 22.9999C17.94 22.9999 19.8477 22.2097 21.2542 20.8032C22.6607 19.3966 23.4509 17.489 23.4509 15.4999C23.4509 13.5107 22.6607 11.6031 21.2542 10.1966C19.8477 8.79003 17.94 8.00136 15.9509 8.00136ZM15.9509 11.0014C16.5486 10.9903 17.1426 11.0986 17.6981 11.3197C18.2535 11.5408 18.7594 11.8704 19.186 12.2892C19.6127 12.708 19.9516 13.2076 20.183 13.7589C20.4144 14.3101 20.5337 14.902 20.5338 15.4998C20.5339 16.0977 20.4148 16.6896 20.1836 17.2409C19.9524 17.7923 19.6136 18.292 19.1871 18.711C18.7606 19.1299 18.2549 19.4597 17.6995 19.681C17.1441 19.9023 16.5501 20.0107 15.9524 19.9999C14.7589 19.9999 13.6143 19.5258 12.7704 18.6818C11.9265 17.8379 11.4524 16.6933 11.4524 15.4999C11.4524 14.3064 11.9265 13.1618 12.7704 12.3179C13.6143 11.474 14.7589 10.9999 15.9524 10.9999L15.9509 11.0014ZM23.8259 5.75136C23.342 5.77073 22.8843 5.97658 22.5488 6.32581C22.2133 6.67505 22.0259 7.14056 22.0259 7.62486C22.0259 8.10916 22.2133 8.57467 22.5488 8.9239C22.8843 9.27313 23.342 9.47899 23.8259 9.49836C24.3232 9.49836 24.8001 9.30081 25.1517 8.94918C25.5033 8.59755 25.7009 8.12064 25.7009 7.62336C25.7009 7.12608 25.5033 6.64916 25.1517 6.29753C24.8001 5.9459 24.3232 5.74836 23.8259 5.74836V5.75136Z" fill="#FF31F7"/>
</svg>
