<svg width="541" height="541" viewBox="0 0 541 541" fill="none" xmlns="http://www.w3.org/2000/svg">
<path d="M509.699 271.385L530.676 272.357L530.49 276.373L514.813 288.049L514.903 286.102L530.007 286.801L529.785 291.596L508.807 290.624L508.992 286.638L524.67 274.932L524.58 276.88L509.476 276.18L509.699 271.385Z" fill="#FF31F7"/>
<path d="M506.978 303.231C507.226 301.407 507.8 299.85 508.702 298.56C509.601 297.289 510.716 296.361 512.047 295.774C513.397 295.191 514.865 295.006 516.451 295.221C518.056 295.439 519.423 295.998 520.553 296.898C521.699 297.82 522.532 298.973 523.051 300.355C523.589 301.74 523.748 303.245 523.528 304.87C523.316 306.436 522.788 307.797 521.945 308.955C521.119 310.134 520.031 311.006 518.683 311.57C517.355 312.136 515.829 312.303 514.105 312.069C513.926 312.045 513.72 312.007 513.485 311.954C513.269 311.905 513.064 311.857 512.868 311.81L514.631 298.819L517.336 299.186L515.904 309.74L515.344 307.847C516.176 307.96 516.922 307.89 517.582 307.636C518.242 307.383 518.781 306.981 519.199 306.432C519.636 305.886 519.909 305.217 520.016 304.424C520.124 303.631 520.041 302.904 519.767 302.241C519.511 301.601 519.089 301.069 518.5 300.646C517.932 300.226 517.221 299.958 516.369 299.842L515.655 299.745C514.783 299.627 513.985 299.711 513.26 299.996C512.552 300.303 511.973 300.78 511.522 301.425C511.088 302.093 510.807 302.902 510.678 303.854C510.562 304.706 510.59 305.467 510.762 306.136C510.931 306.825 511.237 307.472 511.679 308.077L508.669 310.181C507.936 309.335 507.417 308.326 507.112 307.154C506.827 305.985 506.782 304.677 506.978 303.231Z" fill="#FF31F7"/>
<path d="M503.935 320.466C504.296 318.785 504.969 317.364 505.954 316.205C506.935 315.066 508.114 314.245 509.49 313.742C510.881 313.263 512.359 313.192 513.923 313.528C515.507 313.867 516.826 314.539 517.879 315.542C518.947 316.569 519.685 317.802 520.092 319.239C520.515 320.7 520.546 322.272 520.185 323.953C519.829 325.616 519.158 327.026 518.173 328.185C517.207 329.349 516.038 330.172 514.666 330.655C513.295 331.138 511.807 331.207 510.203 330.863C508.639 330.527 507.321 329.856 506.248 328.848C505.195 327.845 504.457 326.613 504.034 325.151C503.612 323.69 503.579 322.129 503.935 320.466ZM507.69 321.272C507.526 322.035 507.555 322.757 507.777 323.439C507.999 324.12 508.395 324.706 508.965 325.197C509.554 325.692 510.298 326.035 511.198 326.228C512.117 326.426 512.937 326.417 513.658 326.204C514.379 325.99 514.98 325.618 515.462 325.088C515.944 324.557 516.267 323.91 516.431 323.148C516.594 322.385 516.565 321.663 516.343 320.981C516.121 320.299 515.728 319.704 515.162 319.194C514.592 318.703 513.848 318.359 512.929 318.162C512.029 317.969 511.209 317.977 510.469 318.186C509.744 318.42 509.14 318.801 508.658 319.332C508.176 319.863 507.853 320.509 507.69 321.272Z" fill="#FF31F7"/>
<path d="M514.403 346.021C514.031 347.246 513.451 348.261 512.663 349.067C511.888 349.898 510.909 350.436 509.726 350.683C508.563 350.936 507.196 350.824 505.627 350.347L496.786 347.661L498.146 343.183L506.299 345.66C507.542 346.038 508.545 346.039 509.307 345.665C510.063 345.309 510.592 344.634 510.895 343.639C511.11 342.93 511.151 342.243 511.02 341.576C510.901 340.934 510.585 340.357 510.072 339.845C509.552 339.353 508.814 338.962 507.857 338.671L500.222 336.352L501.582 331.874L517.025 336.565L515.726 340.842L511.449 339.543L512.985 339.132C513.85 340 514.403 341.036 514.644 342.238C514.885 343.44 514.805 344.701 514.403 346.021Z" fill="#FF31F7"/>
<path d="M493.865 355.85L515.867 357.867L513.869 362.494L494.427 360.602L495.426 358.288L510.028 371.391L508.244 375.522L488.79 373.657L489.753 371.426L504.403 384.418L502.56 388.687L486.004 374.055L488.073 369.263L505.161 370.857L504.614 372.124L491.795 360.642L493.865 355.85Z" fill="#FF31F7"/>
<path d="M477.943 388.382C478.796 386.889 479.867 385.738 481.157 384.932C482.437 384.143 483.809 383.717 485.272 383.654C486.743 383.619 488.173 383.998 489.563 384.792C490.97 385.595 492.023 386.634 492.723 387.909C493.43 389.211 493.761 390.609 493.714 392.102C493.675 393.623 493.229 395.13 492.376 396.624C491.533 398.1 490.466 399.241 489.177 400.048C487.904 400.865 486.541 401.295 485.088 401.34C483.634 401.386 482.195 401.001 480.771 400.188C479.381 399.395 478.328 398.356 477.611 397.071C476.911 395.796 476.58 394.398 476.62 392.878C476.659 391.357 477.1 389.858 477.943 388.382ZM481.278 390.286C480.891 390.964 480.7 391.661 480.705 392.378C480.71 393.095 480.91 393.773 481.305 394.413C481.717 395.063 482.322 395.616 483.121 396.072C483.938 396.538 484.722 396.779 485.473 396.793C486.225 396.808 486.911 396.635 487.531 396.275C488.151 395.916 488.654 395.397 489.041 394.72C489.428 394.042 489.619 393.345 489.613 392.628C489.608 391.911 489.413 391.224 489.029 390.567C488.634 389.927 488.029 389.374 487.212 388.908C486.413 388.452 485.629 388.211 484.86 388.187C484.099 388.189 483.408 388.371 482.788 388.731C482.168 389.09 481.664 389.609 481.278 390.286Z" fill="#FF31F7"/>
<path d="M472.162 398.48L485.618 407.392L483.15 411.119L479.348 408.601L480.797 408.804C481.482 409.834 481.774 410.951 481.672 412.155C481.587 413.37 481.125 414.611 480.285 415.878L476.684 413.493C476.811 413.337 476.919 413.193 477.007 413.059C477.112 412.937 477.214 412.801 477.314 412.651C478.02 411.584 478.286 410.512 478.111 409.437C477.942 408.389 477.215 407.44 475.931 406.589L469.578 402.381L472.162 398.48Z" fill="#FF31F7"/>
<path d="M465.055 408.963L483.008 422.123L480.242 425.897L462.288 412.737L465.055 408.963Z" fill="#FF31F7"/>
<path d="M455.136 421.48C456.104 420.309 457.239 419.469 458.541 418.962C459.858 418.468 461.223 418.339 462.638 418.574C464.04 418.825 465.388 419.485 466.683 420.556C467.993 421.639 468.903 422.845 469.412 424.175C469.909 425.52 470.031 426.879 469.778 428.253C469.524 429.626 468.913 430.899 467.945 432.07C467.078 433.119 466.089 433.845 464.976 434.248C463.864 434.652 462.659 434.681 461.362 434.335C460.065 433.989 458.684 433.211 457.22 432C455.771 430.803 454.741 429.6 454.129 428.394C453.533 427.201 453.329 426.02 453.516 424.851C453.691 423.698 454.231 422.574 455.136 421.48ZM457.579 424.551C457.095 425.137 456.794 425.783 456.676 426.491C456.559 427.198 456.639 427.9 456.919 428.598C457.201 429.325 457.696 429.981 458.405 430.567C459.13 431.166 459.867 431.529 460.618 431.657C461.356 431.8 462.061 431.747 462.734 431.499C463.406 431.251 463.985 430.834 464.469 430.248C464.966 429.647 465.273 428.992 465.391 428.285C465.509 427.578 465.434 426.868 465.168 426.154C464.888 425.456 464.387 424.808 463.662 424.209C462.953 423.623 462.222 423.252 461.468 423.096C460.718 422.968 460.006 423.028 459.333 423.277C458.661 423.525 458.076 423.95 457.579 424.551ZM452.109 425.517L454.653 427.62L458.294 430.748L462.162 433.556L469.399 439.54L466.416 443.146L449.261 428.962L452.109 425.517Z" fill="#FF31F7"/>
<path d="M418.511 457.987L430.864 474.969L427.613 477.334L408.699 472.395L410.276 471.248L419.17 483.475L415.289 486.299L402.935 469.317L406.162 466.97L425.1 471.891L423.523 473.038L414.629 460.811L418.511 457.987Z" fill="#FF31F7"/>
<path d="M392.122 475.599C393.699 474.652 395.273 474.126 396.844 474.023C398.398 473.929 399.819 474.218 401.109 474.89C402.41 475.579 403.472 476.609 404.296 477.98C405.13 479.369 405.549 480.785 405.553 482.229C405.551 483.701 405.172 485.071 404.419 486.341C403.675 487.627 402.6 488.693 401.194 489.538C399.84 490.351 398.448 490.791 397.017 490.857C395.58 490.95 394.22 490.647 392.937 489.948C391.664 489.266 390.58 488.18 389.684 486.688C389.591 486.534 389.491 486.349 389.385 486.133C389.289 485.934 389.198 485.743 389.112 485.562L400.35 478.811L401.756 481.151L392.626 486.635L393.752 485.014C394.185 485.734 394.707 486.272 395.317 486.629C395.928 486.985 396.578 487.154 397.267 487.137C397.967 487.137 398.66 486.93 399.346 486.518C400.031 486.106 400.547 485.587 400.893 484.959C401.233 484.358 401.383 483.696 401.345 482.972C401.317 482.266 401.082 481.544 400.639 480.807L400.268 480.19C399.815 479.435 399.251 478.864 398.575 478.477C397.892 478.117 397.158 477.963 396.373 478.015C395.58 478.095 394.773 478.381 393.95 478.876C393.213 479.319 392.637 479.816 392.222 480.369C391.79 480.931 391.476 481.575 391.281 482.299L387.756 481.266C387.958 480.165 388.421 479.129 389.144 478.158C389.878 477.204 390.87 476.351 392.122 475.599Z" fill="#FF31F7"/>
<path d="M376.476 484.102C378.015 483.334 379.544 482.972 381.065 483.017C382.567 483.071 383.945 483.478 385.197 484.239C386.44 485.026 387.419 486.136 388.134 487.567C388.858 489.016 389.158 490.465 389.032 491.914C388.897 493.39 388.396 494.736 387.528 495.952C386.652 497.195 385.444 498.201 383.905 498.97C382.384 499.73 380.864 500.087 379.343 500.042C377.832 500.015 376.459 499.616 375.225 498.847C373.991 498.077 373.007 496.959 372.274 495.492C371.559 494.061 371.26 492.612 371.376 491.145C371.502 489.696 372.003 488.35 372.88 487.107C373.757 485.864 374.955 484.862 376.476 484.102ZM378.193 487.537C377.495 487.886 376.949 488.36 376.555 488.959C376.162 489.558 375.951 490.234 375.924 490.985C375.906 491.754 376.103 492.55 376.514 493.373C376.934 494.214 377.453 494.849 378.07 495.279C378.687 495.708 379.353 495.945 380.069 495.99C380.784 496.035 381.491 495.883 382.189 495.535C382.886 495.186 383.432 494.712 383.826 494.113C384.22 493.514 384.439 492.834 384.484 492.074C384.511 491.322 384.314 490.526 383.894 489.686C383.483 488.863 382.964 488.227 382.338 487.78C381.703 487.359 381.028 487.127 380.313 487.082C379.597 487.037 378.89 487.189 378.193 487.537Z" fill="#FF31F7"/>
<path d="M363.17 508.14C361.98 508.612 360.824 508.791 359.703 508.676C358.571 508.588 357.539 508.158 356.609 507.386C355.687 506.634 354.923 505.495 354.318 503.971L350.91 495.382L355.261 493.656L358.403 501.575C358.882 502.784 359.506 503.569 360.273 503.932C361.023 504.301 361.881 504.294 362.847 503.911C363.535 503.638 364.099 503.242 364.539 502.724C364.967 502.231 365.221 501.624 365.301 500.904C365.363 500.191 365.209 499.37 364.84 498.44L361.897 491.023L366.247 489.297L372.2 504.299L368.045 505.948L366.396 501.793L367.675 502.738C367.534 503.956 367.069 505.033 366.279 505.971C365.489 506.908 364.452 507.631 363.17 508.14Z" fill="#FF31F7"/>
<path d="M342.735 498.2L354.859 516.672L349.994 517.99L339.367 501.599L341.799 500.94L340.641 520.525L336.298 521.702L325.642 505.319L327.987 504.683L326.945 524.236L322.457 525.452L323.595 503.387L328.634 502.021L338.027 516.384L336.696 516.745L337.697 499.565L342.735 498.2Z" fill="#FF31F7"/>
<path d="M307.534 505.997C309.234 505.733 310.801 505.854 312.235 506.36C313.65 506.869 314.838 507.677 315.799 508.782C316.743 509.911 317.338 511.266 317.584 512.847C317.832 514.447 317.676 515.919 317.115 517.261C316.538 518.625 315.651 519.755 314.454 520.649C313.24 521.566 311.783 522.157 310.084 522.421C308.404 522.681 306.847 522.559 305.412 522.053C303.98 521.567 302.794 520.769 301.853 519.661C300.912 518.552 300.315 517.187 300.064 515.567C299.818 513.986 299.974 512.514 300.532 511.153C301.093 509.811 301.98 508.681 303.194 507.764C304.407 506.847 305.854 506.258 307.534 505.997ZM308.123 509.792C307.352 509.911 306.688 510.197 306.131 510.648C305.573 511.098 305.167 511.678 304.913 512.385C304.661 513.112 304.606 513.93 304.747 514.839C304.892 515.768 305.192 516.531 305.649 517.128C306.106 517.725 306.669 518.154 307.337 518.415C308.004 518.675 308.724 518.746 309.495 518.626C310.265 518.506 310.929 518.221 311.487 517.77C312.044 517.319 312.46 516.739 312.734 516.028C312.989 515.321 313.044 514.503 312.9 513.574C312.759 512.665 312.458 511.902 311.998 511.285C311.521 510.691 310.949 510.264 310.281 510.003C309.613 509.743 308.894 509.672 308.123 509.792Z" fill="#FF31F7"/>
<path d="M296.072 507.775L297.502 523.851L293.049 524.247L292.645 519.705L293.39 520.964C293.013 522.142 292.322 523.067 291.317 523.739C290.315 524.43 289.056 524.843 287.542 524.978L287.16 520.675C287.361 520.677 287.541 520.671 287.7 520.657C287.861 520.663 288.032 520.658 288.211 520.642C289.486 520.528 290.489 520.068 291.22 519.26C291.933 518.474 292.222 517.313 292.085 515.779L291.41 508.189L296.072 507.775Z" fill="#FF31F7"/>
<path d="M283.619 508.753L284.563 530.993L279.887 531.192L278.943 508.952L283.619 508.753Z" fill="#FF31F7"/>
<path d="M266.393 508.815C267.912 508.845 269.276 509.211 270.482 509.915C271.688 510.638 272.64 511.627 273.335 512.88C274.011 514.134 274.333 515.6 274.301 517.28C274.268 518.979 273.89 520.442 273.166 521.669C272.422 522.894 271.434 523.836 270.201 524.492C268.968 525.148 267.592 525.462 266.072 525.432C264.712 525.406 263.528 525.083 262.52 524.464C261.512 523.844 260.739 522.919 260.203 521.688C259.667 520.458 259.417 518.893 259.454 516.993C259.49 515.113 259.79 513.559 260.354 512.33C260.917 511.12 261.715 510.225 262.746 509.645C263.757 509.065 264.973 508.788 266.393 508.815ZM265.509 512.639C264.749 512.624 264.055 512.791 263.429 513.139C262.802 513.487 262.302 513.988 261.929 514.64C261.536 515.313 261.331 516.109 261.313 517.029C261.295 517.969 261.47 518.772 261.837 519.44C262.184 520.106 262.664 520.626 263.277 520.998C263.89 521.37 264.576 521.563 265.336 521.577C266.116 521.593 266.819 521.426 267.446 521.078C268.073 520.73 268.583 520.23 268.975 519.577C269.348 518.924 269.543 518.128 269.562 517.188C269.579 516.268 269.415 515.465 269.068 514.778C268.701 514.111 268.211 513.591 267.598 513.22C266.985 512.848 266.289 512.654 265.509 512.639ZM261.349 508.958L261.285 512.258L261.103 517.055L261.311 521.83L261.129 531.218L256.45 531.128L256.88 508.872L261.349 508.958Z" fill="#FF31F7"/>
<path d="M215.237 502.867L209.59 523.094L205.718 522.013L197.85 504.119L199.728 504.643L195.663 519.206L191.04 517.916L196.686 497.689L200.529 498.762L208.426 516.664L206.548 516.14L210.613 501.577L215.237 502.867Z" fill="#FF31F7"/>
<path d="M185.1 493.13C186.821 493.783 188.207 494.694 189.261 495.864C190.296 497.027 190.948 498.323 191.219 499.752C191.482 501.199 191.33 502.671 190.762 504.167C190.188 505.682 189.334 506.887 188.203 507.784C187.045 508.692 185.734 509.243 184.27 509.436C182.8 509.648 181.297 509.463 179.764 508.881C178.287 508.321 177.08 507.499 176.143 506.416C175.181 505.345 174.577 504.089 174.332 502.649C174.08 501.227 174.263 499.702 174.881 498.076C174.944 497.907 175.028 497.714 175.132 497.497C175.229 497.299 175.322 497.109 175.412 496.929L187.669 501.581L186.7 504.134L176.743 500.355L178.713 500.236C178.415 501.021 178.315 501.764 178.413 502.465C178.511 503.165 178.78 503.78 179.22 504.311C179.654 504.861 180.244 505.277 180.992 505.561C181.74 505.845 182.468 505.929 183.175 505.812C183.857 505.707 184.47 505.416 185.015 504.938C185.553 504.479 185.974 503.847 186.28 503.043L186.535 502.37C186.847 501.547 186.946 500.751 186.832 499.98C186.693 499.221 186.359 498.549 185.833 497.964C185.28 497.391 184.555 496.934 183.658 496.593C182.853 496.288 182.106 496.144 181.416 496.16C180.706 496.169 180.007 496.32 179.318 496.615L177.948 493.207C178.937 492.684 180.038 492.407 181.248 492.374C182.451 492.36 183.735 492.612 185.1 493.13Z" fill="#FF31F7"/>
<path d="M168.747 486.15C170.303 486.884 171.532 487.863 172.437 489.086C173.323 490.301 173.854 491.635 174.03 493.089C174.179 494.553 173.912 496.009 173.229 497.456C172.538 498.92 171.583 500.051 170.367 500.848C169.123 501.654 167.755 502.092 166.263 502.162C164.744 502.241 163.207 501.913 161.651 501.179C160.114 500.453 158.893 499.478 157.989 498.255C157.076 497.05 156.541 495.725 156.383 494.279C156.225 492.833 156.496 491.369 157.196 489.886C157.88 488.439 158.834 487.308 160.059 486.493C161.276 485.696 162.644 485.258 164.163 485.179C165.682 485.1 167.21 485.424 168.747 486.15ZM167.108 489.622C166.402 489.289 165.693 489.153 164.978 489.214C164.264 489.275 163.603 489.527 162.996 489.97C162.38 490.431 161.876 491.077 161.483 491.909C161.081 492.759 160.903 493.56 160.946 494.31C160.99 495.061 161.215 495.731 161.622 496.321C162.029 496.912 162.585 497.373 163.291 497.706C163.996 498.039 164.706 498.175 165.42 498.115C166.135 498.054 166.805 497.806 167.43 497.371C168.037 496.928 168.542 496.282 168.943 495.432C169.336 494.6 169.515 493.8 169.479 493.031C169.418 492.272 169.183 491.597 168.776 491.007C168.369 490.417 167.813 489.955 167.108 489.622Z" fill="#FF31F7"/>
<path d="M141.719 490.678C140.61 490.039 139.751 489.245 139.144 488.295C138.51 487.353 138.206 486.277 138.233 485.069C138.249 483.879 138.666 482.573 139.485 481.152L144.096 473.145L148.152 475.48L143.9 482.863C143.251 483.99 143.023 484.967 143.216 485.793C143.392 486.61 143.931 487.278 144.832 487.797C145.473 488.166 146.134 488.362 146.813 488.384C147.466 488.414 148.099 488.236 148.713 487.851C149.31 487.456 149.857 486.826 150.356 485.959L154.339 479.044L158.395 481.38L150.339 495.366L146.466 493.135L148.697 489.261L148.751 490.85C147.709 491.497 146.576 491.802 145.351 491.765C144.125 491.729 142.915 491.366 141.719 490.678Z" fill="#FF31F7"/>
<path d="M136.894 468.509L130.019 489.508L125.954 486.528L132.136 467.997L134.168 469.487L118.139 480.8L114.51 478.139L120.667 459.591L122.627 461.027L106.695 472.41L102.944 469.661L120.9 456.786L125.11 459.872L119.745 476.174L118.632 475.358L132.684 465.423L136.894 468.509Z" fill="#FF31F7"/>
<path d="M108.908 445.863C110.176 447.025 111.061 448.324 111.562 449.76C112.049 451.182 112.161 452.614 111.899 454.056C111.608 455.498 110.922 456.809 109.841 457.989C108.746 459.183 107.5 459.98 106.102 460.381C104.675 460.783 103.239 460.796 101.793 460.421C100.319 460.046 98.9475 459.278 97.6794 458.116C96.4261 456.967 95.5487 455.675 95.0472 454.239C94.5322 452.817 94.4134 451.393 94.6909 449.965C94.9683 448.537 95.661 447.219 96.769 446.01C97.85 444.83 99.0963 444.033 100.508 443.617C101.906 443.217 103.342 443.203 104.817 443.578C106.291 443.952 107.655 444.714 108.908 445.863ZM106.314 448.694C105.739 448.167 105.101 447.826 104.401 447.673C103.7 447.519 102.995 447.564 102.283 447.808C101.558 448.066 100.885 448.534 100.264 449.212C99.6286 449.905 99.2208 450.617 99.0403 451.347C98.8598 452.076 98.8765 452.783 99.0904 453.468C99.3042 454.152 99.6987 454.758 100.274 455.285C100.849 455.812 101.487 456.152 102.187 456.305C102.887 456.459 103.6 456.421 104.326 456.191C105.038 455.947 105.711 455.479 106.346 454.786C106.968 454.108 107.375 453.396 107.569 452.652C107.735 451.909 107.711 451.195 107.497 450.51C107.283 449.826 106.889 449.221 106.314 448.694Z" fill="#FF31F7"/>
<path d="M100.417 438.04L88.7579 449.201L85.6668 445.973L88.9607 442.819L88.4429 444.187C87.2875 444.629 86.1338 444.667 84.9818 444.303C83.8154 443.952 82.7066 443.227 81.6555 442.129L84.776 439.142C84.8999 439.3 85.0171 439.437 85.1278 439.553C85.224 439.682 85.3343 439.812 85.4588 439.942C86.3439 440.867 87.3304 441.362 88.4182 441.428C89.4776 441.494 90.5636 440.994 91.676 439.929L97.1804 434.66L100.417 438.04Z" fill="#FF31F7"/>
<path d="M91.8246 428.85L75.0358 443.466L71.9628 439.937L88.7515 425.32L91.8246 428.85Z" fill="#FF31F7"/>
<path d="M81.6452 416.201C82.5704 417.407 83.1346 418.7 83.3377 420.082C83.525 421.476 83.3458 422.836 82.8003 424.162C82.2426 425.473 81.2973 426.639 79.9644 427.662C78.6157 428.696 77.2363 429.314 75.8264 429.513C74.4043 429.697 73.0522 429.511 71.7701 428.957C70.488 428.403 69.3843 427.523 68.459 426.317C67.6312 425.238 67.1448 424.112 67 422.937C66.8551 421.763 67.0962 420.582 67.7233 419.395C68.3503 418.208 69.4176 417.036 70.925 415.88C72.4166 414.735 73.8186 414 75.1311 413.674C76.4278 413.359 77.6246 413.424 78.7215 413.868C79.8062 414.297 80.7808 415.074 81.6452 416.201ZM78.1055 417.895C77.6429 417.292 77.08 416.855 76.417 416.582C75.754 416.309 75.0511 416.231 74.3083 416.347C73.5375 416.459 72.7871 416.795 72.0572 417.356C71.3114 417.928 70.7924 418.565 70.5001 419.269C70.1956 419.956 70.0892 420.655 70.181 421.366C70.2728 422.077 70.55 422.734 71.0126 423.337C71.4874 423.956 72.0563 424.402 72.7193 424.675C73.3823 424.947 74.0913 425.034 74.8463 424.933C75.589 424.817 76.3333 424.473 77.0791 423.901C77.809 423.341 78.3342 422.711 78.6545 422.012C78.9469 421.308 79.0471 420.601 78.9554 419.89C78.8636 419.179 78.5803 418.514 78.1055 417.895ZM78.3868 412.348L75.7686 414.357L71.9056 417.207L68.3037 420.349L60.8538 426.065L58.005 422.352L75.6659 408.802L78.3868 412.348Z" fill="#FF31F7"/>
<path d="M54.4248 372.831L35.1144 381.084L33.5346 377.387L42.569 360.052L43.3353 361.845L29.4318 367.787L27.5455 363.373L46.8559 355.121L48.4239 358.789L39.4013 376.152L38.635 374.359L52.5385 368.417L54.4248 372.831Z" fill="#FF31F7"/>
<path d="M43.0957 343.081C43.6637 344.831 43.8213 346.483 43.5687 348.037C43.3098 349.572 42.708 350.892 41.7631 351.998C40.7993 353.11 39.5564 353.913 38.0346 354.407C36.4937 354.907 35.0193 354.996 33.6114 354.675C32.1784 354.341 30.9283 353.664 29.8612 352.644C28.775 351.629 27.9788 350.342 27.4726 348.782C26.9848 347.279 26.8699 345.824 27.1277 344.415C27.3604 342.994 27.9617 341.737 28.9318 340.644C29.8828 339.558 31.1858 338.746 32.8408 338.209C33.012 338.153 33.2148 338.098 33.4493 338.043C33.6647 337.994 33.8706 337.948 34.0671 337.905L38.114 350.375L35.5173 351.218L32.2298 341.088L33.5558 342.55C32.7569 342.809 32.115 343.196 31.6302 343.711C31.1455 344.226 30.834 344.821 30.6958 345.497C30.5386 346.179 30.5835 346.9 30.8304 347.661C31.0774 348.422 31.4678 349.042 32.0016 349.52C32.5102 349.986 33.1213 350.282 33.835 350.408C34.5297 350.54 35.286 350.473 36.104 350.207L36.7889 349.985C37.6259 349.714 38.3092 349.292 38.8387 348.721C39.3429 348.136 39.6583 347.456 39.7846 346.679C39.8857 345.889 39.7881 345.038 39.4918 344.125C39.2263 343.307 38.8711 342.633 38.4263 342.105C37.9752 341.557 37.4191 341.107 36.7578 340.754L38.5573 337.552C39.5847 337.997 40.49 338.681 41.2733 339.604C42.0375 340.533 42.645 341.692 43.0957 343.081Z" fill="#FF31F7"/>
<path d="M38.2741 325.823C38.6734 327.496 38.6783 329.068 38.289 330.539C37.895 331.99 37.1855 333.238 36.1604 334.285C35.1112 335.317 33.8085 336.018 32.2522 336.39C30.6764 336.766 29.1973 336.728 27.8147 336.276C26.4081 335.81 25.2112 335.016 24.2239 333.895C23.2125 332.759 22.5072 331.354 22.108 329.681C21.7134 328.027 21.7108 326.465 22.1001 324.995C22.47 323.529 23.1698 322.282 24.1995 321.255C25.2292 320.228 26.5417 319.524 28.1369 319.144C29.6932 318.772 31.1724 318.81 32.5744 319.257C33.9569 319.708 35.1539 320.502 36.1652 321.638C37.1766 322.775 37.8796 324.17 38.2741 325.823ZM34.539 326.715C34.358 325.956 34.0204 325.317 33.5263 324.797C33.0323 324.278 32.4224 323.919 31.6969 323.722C30.9519 323.53 30.132 323.541 29.2371 323.754C28.3228 323.972 27.5864 324.333 27.028 324.837C26.4696 325.34 26.0872 325.935 25.881 326.622C25.6747 327.308 25.6621 328.031 25.8431 328.79C26.0242 329.548 26.3617 330.187 26.8558 330.707C27.3499 331.226 27.962 331.594 28.6922 331.811C29.4177 332.008 30.2377 331.997 31.152 331.779C32.0469 331.565 32.7832 331.205 33.3611 330.697C33.9149 330.174 34.2949 329.569 34.5012 328.883C34.7074 328.196 34.72 327.473 34.539 326.715Z" fill="#FF31F7"/>
<path d="M17.9085 308.007C17.7121 306.742 17.7942 305.576 18.1546 304.508C18.4922 303.423 19.1402 302.513 20.0987 301.777C21.0374 301.045 22.3171 300.552 23.9377 300.301L33.0683 298.883L33.7862 303.508L25.3671 304.815C24.0825 305.014 23.1783 305.448 22.6547 306.116C22.1279 306.765 21.9443 307.603 22.1039 308.631C22.2174 309.362 22.4783 309.999 22.8865 310.543C23.272 311.07 23.807 311.453 24.4916 311.691C25.1731 311.909 26.0079 311.941 26.9961 311.788L34.8816 310.563L35.5996 315.188L19.6506 317.664L18.9649 313.247L23.382 312.561L22.1768 313.598C21.0206 313.191 20.0731 312.498 19.3343 311.52C18.5955 310.542 18.1202 309.371 17.9085 308.007Z" fill="#FF31F7"/>
<path d="M32.1379 290.345L11.4483 298.1L11.2344 293.065L29.5643 286.311L29.6713 288.829L10.8232 283.384L10.6322 278.888L28.9609 272.104L29.064 274.531L10.221 269.206L10.0237 264.561L31.2963 270.533L31.5178 275.748L15.4379 281.746L15.3793 280.367L31.9163 285.13L32.1379 290.345Z" fill="#FF31F7"/>
<path d="M32.3048 253.488C32.1855 255.204 31.7202 256.705 30.9089 257.992C30.0991 259.259 29.0486 260.238 27.7574 260.93C26.4477 261.601 24.9948 261.881 23.3987 261.77C21.7826 261.658 20.3824 261.179 19.1981 260.335C17.9953 259.47 17.0905 258.354 16.4838 256.989C15.8585 255.602 15.6055 254.051 15.7248 252.335C15.8428 250.639 16.3074 249.148 17.1186 247.861C17.9099 246.573 18.9504 245.592 20.2402 244.92C21.5299 244.248 22.9928 243.969 24.6289 244.083C26.225 244.194 27.6252 244.672 28.8294 245.518C30.0137 246.362 30.9185 247.477 31.5438 248.864C32.1691 250.251 32.4227 251.792 32.3048 253.488ZM28.474 253.222C28.5282 252.443 28.3972 251.733 28.0811 251.089C27.7649 250.446 27.2902 249.921 26.6567 249.517C26.0034 249.11 25.2178 248.875 24.3 248.811C23.3623 248.746 22.5517 248.87 21.8683 249.183C21.1849 249.497 20.6421 249.95 20.24 250.544C19.8378 251.137 19.6097 251.823 19.5556 252.601C19.5015 253.379 19.6325 254.09 19.9486 254.734C20.2647 255.377 20.7388 255.911 21.3708 256.336C22.0042 256.741 22.7898 256.976 23.7276 257.041C24.6453 257.105 25.4559 256.981 26.1593 256.669C26.844 256.336 27.3875 255.873 27.7896 255.279C28.1918 254.686 28.4199 254 28.474 253.222Z" fill="#FF31F7"/>
<path d="M33.0789 242.072L17.0854 239.902L17.6863 235.473L22.2049 236.086L20.8122 236.533C19.7471 235.904 18.9984 235.025 18.5662 233.897C18.1141 232.766 17.9903 231.447 18.1946 229.941L22.4754 230.522C22.4287 230.717 22.3946 230.894 22.3731 231.053C22.3317 231.209 22.299 231.376 22.2748 231.554C22.1027 232.822 22.3295 233.903 22.9553 234.795C23.5639 235.665 24.6312 236.203 26.1572 236.41L33.7081 237.434L33.0789 242.072Z" fill="#FF31F7"/>
<path d="M35.046 228.719L13.1644 224.632L14.0237 220.031L35.9053 224.118L35.046 228.719Z" fill="#FF31F7"/>
<path d="M38.529 213.283C38.1594 214.757 37.4964 216.003 36.5401 217.021C35.5645 218.034 34.3877 218.739 33.0098 219.136C31.6368 219.514 30.1355 219.498 28.506 219.089C26.857 218.676 25.5162 217.979 24.4837 216.998C23.456 215.999 22.7607 214.824 22.3978 213.475C22.035 212.127 22.0383 210.715 22.408 209.241C22.7387 207.922 23.3191 206.84 24.1491 205.997C24.9792 205.153 26.054 204.608 27.3735 204.362C28.6931 204.115 30.2744 204.223 32.1173 204.685C33.9409 205.142 35.3884 205.784 36.4598 206.609C37.5119 207.429 38.2049 208.407 38.5388 209.543C38.8776 210.659 38.8744 211.905 38.529 213.283ZM35.0013 211.563C35.1861 210.826 35.1793 210.113 34.9809 209.424C34.7825 208.735 34.407 208.136 33.8543 207.626C33.2871 207.092 32.5574 206.713 31.665 206.489C30.7532 206.261 29.931 206.251 29.1984 206.459C28.4707 206.647 27.8568 206.999 27.3569 207.512C26.8569 208.026 26.5145 208.652 26.3297 209.389C26.14 210.145 26.1444 210.868 26.3428 211.557C26.5412 212.246 26.9143 212.855 27.4621 213.384C28.0147 213.894 28.7469 214.263 29.6587 214.492C30.5511 214.715 31.3708 214.735 32.118 214.552C32.8506 214.343 33.4668 213.982 33.9668 213.469C34.4668 212.955 34.8116 212.32 35.0013 211.563ZM39.5219 208.335L36.321 207.533L31.687 206.278L26.9872 205.409L17.8791 203.126L19.0172 198.586L40.609 204L39.5219 208.335Z" fill="#FF31F7"/>
<path d="M55.8355 164.406L37.4103 154.331L39.339 150.804L58.5496 147.187L57.614 148.898L44.3479 141.644L46.6509 137.432L65.076 147.508L63.1617 151.008L43.9367 154.651L44.8723 152.94L58.1384 160.195L55.8355 164.406Z" fill="#FF31F7"/>
<path d="M72.1453 137.141C71.1237 138.671 69.9248 139.819 68.5486 140.583C67.1836 141.331 65.7744 141.677 64.3211 141.621C62.8512 141.553 61.4509 141.075 60.1202 140.187C58.7729 139.287 57.789 138.186 57.1686 136.882C56.5426 135.55 56.2995 134.149 56.4391 132.679C56.5621 131.198 57.079 129.776 57.9896 128.412C58.8668 127.098 59.9381 126.106 61.2032 125.435C62.4629 124.737 63.8221 124.43 65.2809 124.514C66.7231 124.587 68.1677 125.107 69.6148 126.073C69.7645 126.173 69.9336 126.298 70.1221 126.448C70.294 126.587 70.4576 126.72 70.6128 126.848L63.3335 137.751L61.063 136.235L66.9764 127.378L66.6506 129.325C65.952 128.858 65.2505 128.594 64.546 128.533C63.8416 128.471 63.1814 128.596 62.5655 128.906C61.933 129.205 61.3946 129.687 60.9504 130.353C60.5062 131.018 60.2617 131.708 60.2168 132.424C60.1664 133.112 60.313 133.775 60.6565 134.413C60.9834 135.04 61.5044 135.592 62.2197 136.07L62.8185 136.469C63.5504 136.958 64.3046 137.233 65.0811 137.295C65.8521 137.328 66.5817 137.154 67.2698 136.772C67.9523 136.362 68.5601 135.758 69.0931 134.959C69.5706 134.244 69.879 133.548 70.0181 132.871C70.1683 132.178 70.1771 131.462 70.0445 130.725L73.6726 130.153C73.9603 131.235 73.9845 132.369 73.7452 133.556C73.4893 134.732 72.956 135.927 72.1453 137.141Z" fill="#FF31F7"/>
<path d="M82.356 123.072C81.2942 124.425 80.0664 125.406 78.6727 126.016C77.2914 126.61 75.8722 126.831 74.4152 126.679C72.9548 126.499 71.5952 125.915 70.3365 124.927C69.0621 123.927 68.1717 122.745 67.6654 121.382C67.1558 119.99 67.033 118.559 67.2973 117.089C67.5581 115.59 68.2195 114.164 69.2813 112.811C70.3308 111.474 71.5524 110.5 72.9461 109.891C74.324 109.269 75.7353 109.041 77.18 109.209C78.6247 109.377 79.9921 109.967 81.2822 110.979C82.5409 111.967 83.4313 113.149 83.9533 114.524C84.4596 115.888 84.5824 117.319 84.3215 118.818C84.0607 120.316 83.4055 121.734 82.356 123.072ZM79.3351 120.701C79.8167 120.087 80.1072 119.425 80.2068 118.716C80.3063 118.006 80.2076 117.305 79.9107 116.615C79.598 115.912 79.0797 115.276 78.356 114.708C77.6165 114.128 76.876 113.775 76.1346 113.651C75.3931 113.527 74.6894 113.598 74.0234 113.863C73.3575 114.129 72.7837 114.568 72.3022 115.182C71.8206 115.795 71.5301 116.457 71.4305 117.167C71.331 117.877 71.4235 118.585 71.7081 119.292C72.0051 119.982 72.5233 120.618 73.2628 121.198C73.9866 121.766 74.727 122.118 75.4842 122.255C76.238 122.364 76.9479 122.285 77.6139 122.02C78.2798 121.754 78.8536 121.315 79.3351 120.701Z" fill="#FF31F7"/>
<path d="M83.5031 96.1537C84.3713 95.2132 85.3356 94.5519 86.3959 94.1698C87.4552 93.7594 88.571 93.7007 89.7433 93.9935C90.9009 94.2727 92.0822 94.9685 93.2873 96.0809L100.077 102.348L96.9024 105.787L90.6419 100.008C89.6867 99.1264 88.7846 98.6883 87.9356 98.6939C87.1002 98.6849 86.3298 99.0625 85.6244 99.8266C85.1224 100.37 84.7855 100.971 84.6137 101.629C84.4407 102.259 84.4741 102.916 84.7137 103.6C84.9669 104.269 85.461 104.943 86.1958 105.621L92.0594 111.034L88.8851 114.472L77.0254 103.525L80.0574 100.24L83.3419 103.272L81.7802 102.974C81.38 101.815 81.3331 100.642 81.6395 99.4552C81.9458 98.2683 82.567 97.1678 83.5031 96.1537Z" fill="#FF31F7"/>
<path d="M106.582 95.8588L87.653 84.4625L91.4662 81.1669L108.145 91.3359L106.239 92.9837L98.7976 74.8308L102.202 71.8883L118.904 82.0377L117.066 83.6267L109.534 65.5522L113.052 62.5117L121.586 82.8923L117.636 86.3056L102.947 77.4301L103.991 76.5277L110.532 92.4456L106.582 95.8588Z" fill="#FF31F7"/>
<path d="M134.841 73.5836C133.425 74.5595 131.961 75.1311 130.449 75.2985C128.953 75.4545 127.533 75.2432 126.187 74.6647C124.846 74.0583 123.722 73.0964 122.814 71.7788C121.895 70.4448 121.397 69.0516 121.319 67.5993C121.246 66.1192 121.555 64.7165 122.245 63.3912C122.94 62.038 123.995 60.8735 125.412 59.8976C126.812 58.9331 128.268 58.3671 129.78 58.1998C131.28 58.0159 132.695 58.2189 134.024 58.8088C135.354 59.3987 136.484 60.3689 137.414 61.7194C138.322 63.037 138.82 64.4301 138.91 65.8989C138.987 67.3512 138.679 68.7539 137.984 70.1071C137.289 71.4602 136.241 72.6191 134.841 73.5836ZM132.663 70.4215C133.305 69.979 133.779 69.4336 134.086 68.7854C134.392 68.1371 134.506 67.4392 134.428 66.6914C134.339 65.9272 134.033 65.1663 133.511 64.4087C132.978 63.6347 132.376 63.078 131.705 62.7388C131.034 62.3996 130.341 62.2576 129.626 62.3129C128.911 62.3682 128.233 62.6172 127.59 63.0597C126.948 63.5023 126.474 64.0476 126.168 64.6959C125.861 65.3441 125.739 66.0477 125.8 66.8068C125.878 67.5545 126.184 68.3154 126.717 69.0895C127.239 69.8471 127.842 70.4037 128.524 70.7594C129.211 71.0873 129.912 71.2236 130.627 71.1683C131.342 71.113 132.02 70.864 132.663 70.4215Z" fill="#FF31F7"/>
<path d="M144.404 66.9674L136.143 53.1014L139.984 50.8137L142.317 54.7312L141.1 53.9196C140.929 52.6946 141.151 51.5617 141.765 50.5209C142.368 49.4629 143.323 48.545 144.629 47.7671L146.84 51.4784C146.658 51.5636 146.498 51.6471 146.36 51.729C146.213 51.7937 146.062 51.8721 145.907 51.9643C144.807 52.6194 144.103 53.4695 143.795 54.5147C143.493 55.5324 143.736 56.7028 144.524 58.0258L148.424 64.5723L144.404 66.9674Z" fill="#FF31F7"/>
<path d="M154.455 61.0696L143.919 41.4606L148.042 39.2456L158.577 58.8547L154.455 61.0696Z" fill="#FF31F7"/>
<path d="M169.337 53.7451C167.956 54.3787 166.569 54.6407 165.176 54.5311C163.776 54.4034 162.49 53.926 161.318 53.099C160.165 52.2637 159.238 51.0825 158.538 49.5554C157.829 48.0101 157.535 46.528 157.654 45.1091C157.792 43.6819 158.273 42.4049 159.099 41.2782C159.924 40.1516 161.028 39.2715 162.41 38.6379C163.646 38.071 164.853 37.8476 166.03 37.9678C167.207 38.088 168.304 38.5859 169.322 39.4614C170.34 40.3369 171.244 41.6382 172.036 43.3653C172.82 45.0742 173.225 46.6047 173.251 47.9569C173.269 49.291 172.939 50.4433 172.262 51.4139C171.603 52.3761 170.628 53.1532 169.337 53.7451ZM168.473 49.917C169.164 49.6002 169.716 49.1489 170.13 48.5632C170.543 47.9776 170.776 47.3097 170.828 46.5598C170.89 45.7832 170.729 44.9769 170.346 44.1406C169.954 43.2862 169.448 42.6382 168.827 42.1967C168.225 41.7468 167.567 41.4875 166.853 41.4187C166.14 41.3499 165.437 41.4739 164.747 41.7907C164.038 42.1158 163.476 42.5712 163.063 43.1569C162.649 43.7426 162.407 44.4146 162.337 45.1729C162.285 45.9229 162.455 46.7251 162.847 47.5796C163.23 48.4158 163.727 49.068 164.338 49.536C164.958 49.9775 165.626 50.2327 166.339 50.3015C167.053 50.3703 167.764 50.2421 168.473 49.917ZM173.819 51.426L172.443 48.4264L170.524 44.0258L168.263 39.815L164.349 31.2797L168.603 29.3289L177.882 49.5628L173.819 51.426Z" fill="#FF31F7"/>
<path d="M217.537 36.7262L213.84 16.0543L217.797 15.3464L232.656 28.0486L230.736 28.392L228.074 13.5082L232.799 12.663L236.497 33.3349L232.569 34.0375L217.681 21.3406L219.6 20.9972L222.262 35.881L217.537 36.7262Z" fill="#FF31F7"/>
<path d="M249.059 32.2783C247.226 32.4413 245.58 32.2262 244.122 31.6331C242.684 31.0381 241.531 30.1568 240.664 28.989C239.796 27.8013 239.29 26.4105 239.149 24.8168C239.005 23.2032 239.247 21.746 239.874 20.4454C240.52 19.123 241.459 18.0556 242.692 17.2432C243.923 16.4109 245.355 15.9221 246.989 15.7768C248.563 15.6368 250.007 15.8497 251.322 16.4154C252.656 16.9594 253.747 17.8262 254.596 19.0157C255.443 20.1853 255.943 21.6366 256.097 23.3698C256.113 23.5491 256.122 23.7591 256.123 24C256.123 24.2209 256.121 24.4318 256.119 24.6328L243.061 25.7941L242.819 23.0749L253.427 22.1315L251.706 23.0977C251.631 22.261 251.397 21.5489 251.004 20.9615C250.61 20.3741 250.1 19.9376 249.472 19.6521C248.842 19.3466 248.129 19.2293 247.332 19.3002C246.535 19.3711 245.844 19.6133 245.258 20.0268C244.691 20.4186 244.266 20.9483 243.984 21.6159C243.7 22.2636 243.597 23.0157 243.673 23.8724L243.737 24.5895C243.815 25.4661 244.073 26.2262 244.512 26.8698C244.969 27.4918 245.562 27.9511 246.291 28.2477C247.038 28.5225 247.89 28.6175 248.846 28.5324C249.703 28.4562 250.438 28.2603 251.053 27.9446C251.687 27.6272 252.25 27.1856 252.742 26.6198L255.461 29.0886C254.799 29.9908 253.93 30.7207 252.855 31.2781C251.778 31.8156 250.513 32.149 249.059 32.2783Z" fill="#FF31F7"/>
<path d="M266.848 31.3554C265.128 31.3753 263.594 31.0331 262.246 30.3286C260.918 29.624 259.857 28.6562 259.062 27.4253C258.288 26.1742 257.891 24.7487 257.873 23.1488C257.854 21.5289 258.217 20.0946 258.963 18.8459C259.728 17.5769 260.767 16.5848 262.079 15.8696C263.41 15.1341 264.936 14.7564 266.656 14.7365C268.356 14.7168 269.88 15.0592 271.228 15.7636C272.576 16.4481 273.637 17.4059 274.412 18.637C275.186 19.8681 275.583 21.3036 275.602 22.9435C275.62 24.5434 275.257 25.9777 274.511 27.2464C273.766 28.4951 272.727 29.4872 271.396 30.2227C270.064 30.9581 268.548 31.3357 266.848 31.3554ZM266.804 27.5157C267.584 27.5066 268.282 27.3185 268.898 26.9514C269.513 26.5842 269.997 26.0686 270.35 25.4045C270.702 24.7203 270.873 23.9183 270.862 22.9984C270.851 22.0584 270.662 21.2606 270.294 20.6048C269.926 19.949 269.431 19.4447 268.806 19.0919C268.182 18.7391 267.48 18.5672 266.7 18.5763C265.92 18.5853 265.223 18.7734 264.607 19.1405C263.991 19.5077 263.497 20.0235 263.125 20.6878C262.772 21.3519 262.602 22.154 262.612 23.0939C262.623 24.0138 262.812 24.8117 263.18 25.4875C263.568 26.143 264.074 26.6472 264.698 27C265.322 27.3528 266.024 27.5247 266.804 27.5157Z" fill="#FF31F7"/>
<path d="M290.321 15.4666C291.598 15.5603 292.716 15.9031 293.675 16.4949C294.656 17.0683 295.396 17.9047 295.897 19.0044C296.399 20.0841 296.59 21.4417 296.47 23.0773L295.794 32.2925L291.126 31.9498L291.75 23.4527C291.845 22.1561 291.626 21.1775 291.093 20.5167C290.58 19.8573 289.805 19.4896 288.768 19.4134C288.03 19.3592 287.35 19.4697 286.728 19.7449C286.128 20.0017 285.635 20.4367 285.249 21.0501C284.883 21.665 284.663 22.471 284.59 23.4684L284.005 31.4269L279.338 31.0842L280.52 14.9876L284.978 15.3149L284.651 19.7729L283.912 18.365C284.569 17.3304 285.458 16.5634 286.577 16.064C287.697 15.5647 288.945 15.3655 290.321 15.4666Z" fill="#FF31F7"/>
<path d="M304.141 33.1949L301.244 11.2905L306.198 12.2159L308.652 31.5958L306.175 31.1331L315.723 13.995L320.147 14.8212L322.63 34.2066L320.241 33.7605L329.672 16.6003L334.243 17.4541L323.634 36.8357L318.503 35.8773L316.28 18.8598L317.636 19.1132L309.273 34.1533L304.141 33.1949Z" fill="#FF31F7"/>
<path d="M339.062 41.3153C337.417 40.8154 336.057 40.0262 334.984 38.9478C333.931 37.8751 333.211 36.6323 332.825 35.2191C332.464 33.7926 332.516 32.3138 332.981 30.7829C333.452 29.2329 334.231 27.9751 335.319 27.0095C336.432 26.0307 337.721 25.3982 339.188 25.1121C340.679 24.8127 342.248 24.913 343.893 25.4129C345.52 25.9071 346.87 26.6934 347.943 27.7718C349.021 28.8311 349.744 30.0644 350.111 31.4718C350.477 32.8792 350.422 34.3674 349.946 35.9366C349.481 37.4675 348.701 38.7253 347.608 39.71C346.52 40.6756 345.231 41.308 343.739 41.6074C342.248 41.9068 340.689 41.8095 339.062 41.3153ZM340.179 37.6411C340.925 37.8679 341.647 37.8991 342.345 37.7349C343.043 37.5706 343.66 37.2251 344.196 36.6982C344.738 36.1522 345.143 35.4391 345.41 34.5588C345.684 33.6594 345.744 32.8416 345.591 32.1055C345.439 31.3693 345.118 30.7389 344.63 30.2142C344.141 29.6896 343.524 29.3139 342.777 29.0871C342.031 28.8604 341.309 28.8292 340.611 28.9934C339.913 29.1576 339.286 29.5003 338.731 30.0213C338.195 30.5482 337.79 31.2613 337.517 32.1607C337.249 33.041 337.189 33.8588 337.336 34.6141C337.507 35.356 337.838 35.9893 338.326 36.514C338.815 37.0387 339.432 37.4144 340.179 37.6411Z" fill="#FF31F7"/>
<path d="M350.745 44.8397L356.471 29.7499L360.651 31.3359L359.033 35.5992L358.912 34.1416C359.765 33.2461 360.79 32.7152 361.987 32.5491C363.191 32.3642 364.504 32.5414 365.925 33.0808L364.392 37.1197C364.212 37.03 364.047 36.9568 363.898 36.9C363.755 36.8246 363.6 36.7549 363.432 36.691C362.235 36.2369 361.131 36.2138 360.121 36.6218C359.136 37.0182 358.37 37.9363 357.824 39.3761L355.12 46.5003L350.745 44.8397Z" fill="#FF31F7"/>
<path d="M361.79 49.1109L370.614 28.6746L374.911 30.5299L366.087 50.9661L361.79 49.1109Z" fill="#FF31F7"/>
<path d="M376.856 56.2569C375.502 55.5674 374.435 54.6429 373.656 53.4835C372.886 52.3063 372.462 51.0018 372.383 49.5701C372.321 48.1475 372.672 46.6876 373.434 45.1904C374.205 43.6753 375.184 42.524 376.37 41.7365C377.574 40.958 378.874 40.5424 380.27 40.4898C381.666 40.4372 383.041 40.7557 384.395 41.4451C385.607 42.0621 386.532 42.8692 387.169 43.8666C387.805 44.864 388.097 46.0334 388.042 47.3746C387.988 48.7159 387.53 50.2332 386.668 51.9265C385.815 53.602 384.867 54.8697 383.823 55.7299C382.789 56.5722 381.681 57.0294 380.5 57.1014C379.336 57.1825 378.122 56.901 376.856 56.2569ZM379.32 53.2021C379.997 53.5468 380.694 53.6994 381.41 53.6598C382.126 53.6202 382.794 53.388 383.414 52.9631C384.061 52.5295 384.593 51.9027 385.011 51.0828C385.437 50.2451 385.63 49.4459 385.591 48.6853C385.57 47.9339 385.364 47.2571 384.975 46.655C384.586 46.0529 384.053 45.5795 383.375 45.2348C382.68 44.881 381.975 44.7238 381.259 44.7634C380.543 44.803 379.866 45.0307 379.228 45.4466C378.608 45.8715 378.084 46.5028 377.658 47.3405C377.241 48.1604 377.038 48.955 377.051 49.7243C377.09 50.4849 377.304 51.1662 377.693 51.7683C378.083 52.3703 378.625 52.8483 379.32 53.2021ZM381.457 58.3292L382.954 55.3882L385.211 51.1513L387.108 46.7642L391.367 38.3958L395.538 40.5187L385.44 60.3568L381.457 58.3292Z" fill="#FF31F7"/>
<path d="M420.967 84.11L434.871 68.3723L437.884 71.0339L437.158 90.5685L435.697 89.2774L445.708 77.9462L449.305 81.1243L435.401 96.8621L432.411 94.2203L433.114 74.6658L434.576 75.9569L424.565 87.2881L420.967 84.11Z" fill="#FF31F7"/>
<path d="M443.855 105.914C442.588 104.58 441.732 103.158 441.29 101.647C440.861 100.151 440.834 98.7001 441.21 97.2949C441.599 95.876 442.374 94.6155 443.534 93.5132C444.708 92.3972 446 91.6803 447.408 91.3625C448.845 91.0454 450.265 91.1168 451.668 91.5769C453.086 92.0233 454.359 92.8408 455.489 94.0296C456.577 95.1748 457.309 96.4384 457.684 97.8201C458.088 99.2026 458.088 100.596 457.684 102C457.295 103.391 456.47 104.686 455.209 105.884C455.078 106.008 454.919 106.146 454.731 106.297C454.558 106.434 454.392 106.564 454.233 106.687L445.202 97.1843L447.181 95.3036L454.517 103.023L452.69 102.277C453.299 101.698 453.711 101.072 453.926 100.398C454.142 99.7247 454.166 99.0534 453.999 98.3842C453.846 97.7013 453.495 97.0699 452.944 96.49C452.392 95.9101 451.773 95.5195 451.085 95.3181C450.425 95.1174 449.746 95.1142 449.048 95.3087C448.364 95.4893 447.711 95.8759 447.087 96.4683L446.565 96.9644C445.928 97.5706 445.493 98.2456 445.262 98.9895C445.059 99.7342 445.068 100.484 445.29 101.24C445.539 101.996 445.995 102.722 446.656 103.418C447.248 104.041 447.859 104.495 448.489 104.78C449.132 105.079 449.828 105.245 450.577 105.279L450.335 108.943C449.216 108.986 448.105 108.759 447 108.264C445.909 107.756 444.861 106.972 443.855 105.914Z" fill="#FF31F7"/>
<path d="M455.323 118.928C454.237 117.595 453.55 116.181 453.261 114.688C452.986 113.21 453.083 111.777 453.551 110.389C454.048 109.004 454.917 107.806 456.157 106.795C457.413 105.772 458.762 105.164 460.204 104.97C461.673 104.779 463.096 104.974 464.472 105.555C465.877 106.139 467.122 107.098 468.209 108.432C469.282 109.75 469.963 111.155 470.251 112.649C470.555 114.13 470.466 115.557 469.985 116.929C469.503 118.302 468.627 119.506 467.355 120.542C466.115 121.552 464.766 122.161 463.309 122.367C461.868 122.561 460.445 122.366 459.04 121.782C457.636 121.198 456.397 120.247 455.323 118.928ZM458.3 116.503C458.793 117.108 459.375 117.537 460.045 117.79C460.716 118.044 461.421 118.101 462.16 117.964C462.914 117.813 463.648 117.448 464.362 116.867C465.09 116.273 465.597 115.628 465.881 114.932C466.166 114.236 466.252 113.534 466.139 112.826C466.027 112.118 465.724 111.462 465.232 110.857C464.739 110.252 464.157 109.823 463.487 109.57C462.816 109.316 462.105 109.251 461.353 109.373C460.614 109.511 459.88 109.877 459.151 110.47C458.438 111.051 457.931 111.696 457.631 112.405C457.36 113.116 457.28 113.826 457.393 114.534C457.505 115.242 457.808 115.898 458.3 116.503Z" fill="#FF31F7"/>
<path d="M482.25 127.281C482.972 128.338 483.401 129.426 483.536 130.545C483.699 131.669 483.507 132.77 482.959 133.847C482.428 134.912 481.485 135.908 480.131 136.834L472.503 142.048L469.862 138.185L476.896 133.376C477.969 132.643 478.598 131.862 478.782 131.033C478.978 130.221 478.782 129.385 478.196 128.527C477.778 127.916 477.268 127.453 476.665 127.138C476.09 126.829 475.442 126.714 474.722 126.795C474.013 126.892 473.246 127.223 472.42 127.787L465.833 132.29L463.192 128.427L476.516 119.318L479.038 123.008L475.348 125.531L475.989 124.076C477.207 123.945 478.361 124.162 479.449 124.726C480.538 125.29 481.471 126.142 482.25 127.281Z" fill="#FF31F7"/>
<path d="M476.784 148.883L492.09 132.949L494.459 137.397L480.848 151.409L479.663 149.185L499.014 145.95L501.129 149.922L487.532 163.961L486.389 161.816L505.683 158.475L507.869 162.579L486.104 166.386L483.651 161.779L495.56 149.421L496.208 150.639L479.237 153.491L476.784 148.883Z" fill="#FF31F7"/>
<path d="M492.415 181.826C491.781 180.227 491.551 178.672 491.726 177.161C491.909 175.668 492.432 174.331 493.297 173.149C494.188 171.978 495.377 171.097 496.864 170.507C498.37 169.909 499.84 169.735 501.273 169.984C502.731 170.245 504.03 170.859 505.167 171.828C506.33 172.808 507.229 174.098 507.864 175.696C508.491 177.277 508.716 178.822 508.541 180.333C508.385 181.837 507.871 183.171 506.998 184.334C506.126 185.498 504.928 186.382 503.403 186.987C501.916 187.577 500.447 187.751 498.995 187.51C497.562 187.261 496.264 186.646 495.101 185.666C493.937 184.686 493.042 183.406 492.415 181.826ZM495.984 180.409C496.272 181.135 496.698 181.719 497.261 182.162C497.824 182.606 498.479 182.873 499.225 182.964C499.99 183.048 500.8 182.921 501.655 182.581C502.529 182.235 503.206 181.772 503.687 181.194C504.167 180.616 504.461 179.973 504.567 179.264C504.673 178.555 504.582 177.838 504.294 177.112C504.007 176.387 503.581 175.803 503.018 175.36C502.455 174.916 501.796 174.639 501.043 174.53C500.296 174.438 499.486 174.566 498.613 174.913C497.757 175.252 497.08 175.714 496.581 176.3C496.108 176.896 495.818 177.549 495.712 178.258C495.606 178.967 495.697 179.684 495.984 180.409Z" fill="#FF31F7"/>
<path d="M496.822 192.956L512.192 188.032L513.556 192.289L509.213 193.68L510.278 192.677C511.51 192.786 512.564 193.257 513.44 194.09C514.335 194.916 515.014 196.053 515.478 197.501L511.364 198.819C511.322 198.622 511.276 198.448 511.228 198.295C511.198 198.137 511.155 197.972 511.101 197.801C510.71 196.582 510.04 195.704 509.092 195.168C508.168 194.645 506.973 194.618 505.506 195.088L498.25 197.413L496.822 192.956Z" fill="#FF31F7"/>
<path d="M500.437 204.609L521.922 198.787L523.146 203.304L501.661 209.126L500.437 204.609Z" fill="#FF31F7"/>
<path d="M504.004 220.009C503.696 218.52 503.752 217.11 504.171 215.777C504.61 214.441 505.363 213.295 506.432 212.339C507.505 211.402 508.864 210.764 510.509 210.424C512.174 210.08 513.684 210.126 515.04 210.56C516.4 211.014 517.537 211.77 518.449 212.827C519.362 213.884 519.972 215.157 520.28 216.646C520.555 217.978 520.502 219.204 520.121 220.324C519.74 221.444 519.008 222.402 517.927 223.198C516.845 223.993 515.374 224.583 513.514 224.967C511.673 225.348 510.09 225.399 508.767 225.121C507.463 224.839 506.414 224.259 505.62 223.382C504.83 222.524 504.291 221.399 504.004 220.009ZM507.928 220.025C508.082 220.769 508.398 221.409 508.876 221.943C509.354 222.477 509.952 222.854 510.672 223.073C511.414 223.308 512.236 223.332 513.137 223.146C514.058 222.955 514.803 222.607 515.372 222.102C515.946 221.616 516.346 221.033 516.573 220.353C516.8 219.673 516.837 218.96 516.683 218.216C516.525 217.452 516.207 216.803 515.729 216.269C515.251 215.735 514.651 215.348 513.928 215.109C513.208 214.89 512.389 214.876 511.468 215.066C510.567 215.252 509.82 215.591 509.227 216.081C508.657 216.586 508.259 217.179 508.032 217.859C507.805 218.539 507.77 219.261 507.928 220.025ZM505.259 224.896L508.49 224.228L513.209 223.345L517.82 222.086L527.016 220.186L527.963 224.769L506.163 229.274L505.259 224.896Z" fill="#FF31F7"/>
<g filter="url(#filter0_d_221_42)">
<path d="M291.541 218.7C294.322 218.7 296.577 216.445 296.577 213.664V157.144C296.577 154.991 294.831 153.245 292.678 153.245C290.524 153.245 288.779 154.991 288.779 157.144V204.345C288.779 204.577 288.59 204.765 288.359 204.765C288.221 204.765 288.093 204.698 288.014 204.585L253.846 155.408C252.905 154.053 251.36 153.245 249.71 153.245C246.929 153.245 244.674 155.501 244.674 158.282V214.737C244.674 216.925 246.448 218.7 248.636 218.7C250.825 218.7 252.599 216.925 252.599 214.737V167.727C252.599 167.496 252.788 167.308 253.019 167.308C253.157 167.308 253.286 167.375 253.364 167.488L287.404 216.535C288.345 217.891 289.891 218.7 291.541 218.7Z" fill="#FF31F7"/>
<path d="M251.66 404.1C249.24 404.1 247.119 402.481 246.481 400.147L230.998 343.525C230.326 341.068 232.176 338.645 234.723 338.645C236.486 338.645 238.025 339.839 238.462 341.547L251.318 391.645C251.364 391.827 251.529 391.955 251.718 391.955C251.905 391.955 252.07 391.828 252.117 391.646L264.84 342.974C265.506 340.424 267.81 338.645 270.445 338.645C273.081 338.645 275.385 340.424 276.051 342.974L288.774 391.646C288.822 391.828 288.986 391.955 289.173 391.955C289.362 391.955 289.527 391.827 289.573 391.645L302.428 341.547C302.866 339.839 304.405 338.645 306.168 338.645C308.715 338.645 310.564 341.068 309.892 343.525L294.41 400.147C293.772 402.481 291.651 404.1 289.231 404.1C286.818 404.1 284.701 402.49 284.057 400.164L270.769 352.187C270.729 352.042 270.596 351.941 270.445 351.941C270.295 351.941 270.162 352.042 270.122 352.187L256.834 400.164C256.19 402.49 254.073 404.1 251.66 404.1Z" fill="#FF31F7"/>
<path d="M337.772 280.35C340.879 280.35 343.397 277.832 343.397 274.725C343.397 271.618 340.879 269.1 337.772 269.1H203.222C200.116 269.1 197.597 271.618 197.597 274.725C197.597 277.832 200.116 280.35 203.222 280.35H337.772Z" fill="#FF31F7"/>
<path fill-rule="evenodd" clip-rule="evenodd" d="M495.497 270C495.497 394.264 394.76 495 270.497 495C146.233 495 45.4972 394.264 45.4972 270C45.4972 145.736 146.233 45 270.497 45C394.76 45 495.497 145.736 495.497 270ZM486.497 270C486.497 389.294 389.792 486 270.497 486C151.204 486 54.4972 389.294 54.4972 270C54.4972 150.706 151.204 54 270.497 54C389.792 54 486.497 150.706 486.497 270Z" fill="#FF31F7"/>
</g>
<defs>
<filter id="filter0_d_221_42" x="30.4972" y="30" width="490" height="490" filterUnits="userSpaceOnUse" color-interpolation-filters="sRGB">
<feFlood flood-opacity="0" result="BackgroundImageFix"/>
<feColorMatrix in="SourceAlpha" type="matrix" values="0 0 0 0 0 0 0 0 0 0 0 0 0 0 0 0 0 0 127 0" result="hardAlpha"/>
<feOffset dx="5" dy="5"/>
<feGaussianBlur stdDeviation="10"/>
<feComposite in2="hardAlpha" operator="out"/>
<feColorMatrix type="matrix" values="0 0 0 0 1 0 0 0 0 0.192157 0 0 0 0 0.968627 0 0 0 1 0"/>
<feBlend mode="normal" in2="BackgroundImageFix" result="effect1_dropShadow_221_42"/>
<feBlend mode="normal" in="SourceGraphic" in2="effect1_dropShadow_221_42" result="shape"/>
</filter>
</defs>
</svg>
