<svg width="206" height="45" viewBox="0 0 206 45" fill="none" xmlns="http://www.w3.org/2000/svg">
<path d="M24.577 17.3756C24.8548 17.3756 25.0801 17.1504 25.0801 16.8726V11.2269C25.0801 11.0118 24.9057 10.8374 24.6906 10.8374C24.4755 10.8374 24.3011 11.0118 24.3011 11.2269V15.9417C24.3011 15.9649 24.2823 15.9837 24.2592 15.9837C24.2455 15.9837 24.2326 15.9769 24.2247 15.9657L20.8118 11.0535C20.7178 10.9181 20.5634 10.8374 20.3986 10.8374C20.1208 10.8374 19.8955 11.0627 19.8955 11.3405V16.9797C19.8955 17.1984 20.0727 17.3756 20.2913 17.3756C20.51 17.3756 20.6872 17.1984 20.6872 16.9797V12.284C20.6872 12.2609 20.706 12.2421 20.7291 12.2421C20.7429 12.2421 20.7558 12.2488 20.7636 12.2601L24.1638 17.1594C24.2578 17.2948 24.4122 17.3756 24.577 17.3756Z" fill="#FF31F7"/>
<path d="M20.5933 35.8951C20.3516 35.8951 20.1398 35.7335 20.0761 35.5003L18.5295 29.8444C18.4624 29.5989 18.6471 29.3569 18.9016 29.3569C19.0776 29.3569 19.2314 29.4762 19.2751 29.6468L20.5592 34.651C20.5638 34.6693 20.5803 34.682 20.5991 34.682C20.6179 34.682 20.6343 34.6693 20.639 34.6512L21.9099 29.7894C21.9764 29.5347 22.2065 29.3569 22.4698 29.3569C22.7331 29.3569 22.9632 29.5347 23.0298 29.7894L24.3006 34.6512C24.3054 34.6693 24.3218 34.682 24.3405 34.682C24.3594 34.682 24.3758 34.6693 24.3805 34.651L25.6645 29.6468C25.7083 29.4762 25.8621 29.3569 26.0381 29.3569C26.2925 29.3569 26.4772 29.5989 26.4101 29.8444L24.8636 35.5003C24.7998 35.7335 24.588 35.8951 24.3463 35.8951C24.1053 35.8951 23.8938 35.7343 23.8295 35.502L22.5022 30.7097C22.4982 30.6951 22.4849 30.685 22.4698 30.685C22.4548 30.685 22.4415 30.6951 22.4375 30.7097L21.1102 35.502C21.0458 35.7343 20.8344 35.8951 20.5933 35.8951Z" fill="#FF31F7"/>
<path d="M29.195 23.5339C29.5054 23.5339 29.7569 23.2824 29.7569 22.972C29.7569 22.6617 29.5054 22.4102 29.195 22.4102H15.755C15.4447 22.4102 15.1931 22.6617 15.1931 22.972C15.1931 23.2824 15.4447 23.5339 15.755 23.5339H29.195Z" fill="#FF31F7"/>
<path fill-rule="evenodd" clip-rule="evenodd" d="M44.95 22.4999C44.95 34.9125 34.8875 44.9749 22.475 44.9749C10.0624 44.9749 0 34.9125 0 22.4999C0 10.0873 10.0624 0.0249023 22.475 0.0249023C34.8875 0.0249023 44.95 10.0873 44.95 22.4999ZM44.051 22.4999C44.051 34.416 34.3912 44.0759 22.475 44.0759C10.5589 44.0759 0.899 34.416 0.899 22.4999C0.899 10.5838 10.5589 0.923902 22.475 0.923902C34.3912 0.923902 44.051 10.5838 44.051 22.4999Z" fill="#FF31F7"/>
<path d="M63.942 31V14.2H67.158L77.07 26.296H75.51V14.2H79.35V31H76.158L66.222 18.904H67.782V31H63.942ZM89.4688 31.192C87.9968 31.192 86.7008 30.904 85.5808 30.328C84.4768 29.752 83.6208 28.968 83.0128 27.976C82.4048 26.968 82.1008 25.824 82.1008 24.544C82.1008 23.248 82.3968 22.104 82.9888 21.112C83.5968 20.104 84.4208 19.32 85.4608 18.76C86.5008 18.184 87.6768 17.896 88.9888 17.896C90.2528 17.896 91.3888 18.168 92.3968 18.712C93.4208 19.24 94.2288 20.008 94.8208 21.016C95.4128 22.008 95.7088 23.2 95.7088 24.592C95.7088 24.736 95.7008 24.904 95.6848 25.096C95.6688 25.272 95.6528 25.44 95.6368 25.6H85.1488V23.416H93.6688L92.2288 24.064C92.2288 23.392 92.0928 22.808 91.8208 22.312C91.5488 21.816 91.1728 21.432 90.6928 21.16C90.2128 20.872 89.6528 20.728 89.0128 20.728C88.3728 20.728 87.8048 20.872 87.3088 21.16C86.8288 21.432 86.4528 21.824 86.1808 22.336C85.9088 22.832 85.7728 23.424 85.7728 24.112V24.688C85.7728 25.392 85.9248 26.016 86.2288 26.56C86.5488 27.088 86.9888 27.496 87.5488 27.784C88.1248 28.056 88.7968 28.192 89.5648 28.192C90.2528 28.192 90.8528 28.088 91.3648 27.88C91.8928 27.672 92.3728 27.36 92.8048 26.944L94.7968 29.104C94.2048 29.776 93.4608 30.296 92.5648 30.664C91.6688 31.016 90.6368 31.192 89.4688 31.192ZM104.345 31.192C102.969 31.192 101.745 30.904 100.673 30.328C99.6174 29.752 98.7774 28.968 98.1534 27.976C97.5454 26.968 97.2414 25.824 97.2414 24.544C97.2414 23.248 97.5454 22.104 98.1534 21.112C98.7774 20.104 99.6174 19.32 100.673 18.76C101.745 18.184 102.969 17.896 104.345 17.896C105.705 17.896 106.921 18.184 107.993 18.76C109.065 19.32 109.905 20.096 110.513 21.088C111.121 22.08 111.425 23.232 111.425 24.544C111.425 25.824 111.121 26.968 110.513 27.976C109.905 28.968 109.065 29.752 107.993 30.328C106.921 30.904 105.705 31.192 104.345 31.192ZM104.345 28.12C104.969 28.12 105.529 27.976 106.025 27.688C106.521 27.4 106.913 26.992 107.201 26.464C107.489 25.92 107.633 25.28 107.633 24.544C107.633 23.792 107.489 23.152 107.201 22.624C106.913 22.096 106.521 21.688 106.025 21.4C105.529 21.112 104.969 20.968 104.345 20.968C103.721 20.968 103.161 21.112 102.665 21.4C102.169 21.688 101.769 22.096 101.465 22.624C101.177 23.152 101.033 23.792 101.033 24.544C101.033 25.28 101.177 25.92 101.465 26.464C101.769 26.992 102.169 27.4 102.665 27.688C103.161 27.976 103.721 28.12 104.345 28.12ZM121.776 17.896C122.8 17.896 123.712 18.104 124.512 18.52C125.328 18.92 125.968 19.544 126.432 20.392C126.896 21.224 127.128 22.296 127.128 23.608V31H123.384V24.184C123.384 23.144 123.152 22.376 122.688 21.88C122.24 21.384 121.6 21.136 120.768 21.136C120.176 21.136 119.64 21.264 119.16 21.52C118.696 21.76 118.328 22.136 118.056 22.648C117.8 23.16 117.672 23.816 117.672 24.616V31H113.928V18.088H117.504V21.664L116.832 20.584C117.296 19.72 117.96 19.056 118.824 18.592C119.688 18.128 120.672 17.896 121.776 17.896ZM134.818 31L129.322 14.2H133.354L138.13 29.08H136.114L141.106 14.2H144.706L149.506 29.08H147.562L152.458 14.2H156.178L150.682 31H146.506L142.258 17.944H143.362L138.994 31H134.818ZM163.267 31.192C161.891 31.192 160.667 30.904 159.595 30.328C158.539 29.752 157.699 28.968 157.075 27.976C156.467 26.968 156.163 25.824 156.163 24.544C156.163 23.248 156.467 22.104 157.075 21.112C157.699 20.104 158.539 19.32 159.595 18.76C160.667 18.184 161.891 17.896 163.267 17.896C164.627 17.896 165.843 18.184 166.915 18.76C167.987 19.32 168.827 20.096 169.435 21.088C170.043 22.08 170.347 23.232 170.347 24.544C170.347 25.824 170.043 26.968 169.435 27.976C168.827 28.968 167.987 29.752 166.915 30.328C165.843 30.904 164.627 31.192 163.267 31.192ZM163.267 28.12C163.891 28.12 164.451 27.976 164.947 27.688C165.443 27.4 165.835 26.992 166.123 26.464C166.411 25.92 166.555 25.28 166.555 24.544C166.555 23.792 166.411 23.152 166.123 22.624C165.835 22.096 165.443 21.688 164.947 21.4C164.451 21.112 163.891 20.968 163.267 20.968C162.643 20.968 162.083 21.112 161.587 21.4C161.091 21.688 160.691 22.096 160.387 22.624C160.099 23.152 159.955 23.792 159.955 24.544C159.955 25.28 160.099 25.92 160.387 26.464C160.691 26.992 161.091 27.4 161.587 27.688C162.083 27.976 162.643 28.12 163.267 28.12ZM172.85 31V18.088H176.426V21.736L175.922 20.68C176.306 19.768 176.922 19.08 177.77 18.616C178.618 18.136 179.65 17.896 180.866 17.896V21.352C180.706 21.336 180.562 21.328 180.434 21.328C180.306 21.312 180.17 21.304 180.026 21.304C179.002 21.304 178.17 21.6 177.53 22.192C176.906 22.768 176.594 23.672 176.594 24.904V31H172.85ZM183.186 31V13.192H186.93V31H183.186ZM195.949 31.192C194.733 31.192 193.637 30.92 192.661 30.376C191.685 29.816 190.909 29.04 190.333 28.048C189.773 27.056 189.493 25.888 189.493 24.544C189.493 23.184 189.773 22.008 190.333 21.016C190.909 20.024 191.685 19.256 192.661 18.712C193.637 18.168 194.733 17.896 195.949 17.896C197.037 17.896 197.989 18.136 198.805 18.616C199.621 19.096 200.253 19.824 200.701 20.8C201.149 21.776 201.373 23.024 201.373 24.544C201.373 26.048 201.157 27.296 200.725 28.288C200.293 29.264 199.669 29.992 198.853 30.472C198.053 30.952 197.085 31.192 195.949 31.192ZM196.597 28.12C197.205 28.12 197.757 27.976 198.253 27.688C198.749 27.4 199.141 26.992 199.429 26.464C199.733 25.92 199.885 25.28 199.885 24.544C199.885 23.792 199.733 23.152 199.429 22.624C199.141 22.096 198.749 21.688 198.253 21.4C197.757 21.112 197.205 20.968 196.597 20.968C195.973 20.968 195.413 21.112 194.917 21.4C194.421 21.688 194.021 22.096 193.717 22.624C193.429 23.152 193.285 23.792 193.285 24.544C193.285 25.28 193.429 25.92 193.717 26.464C194.021 26.992 194.421 27.4 194.917 27.688C195.413 27.976 195.973 28.12 196.597 28.12ZM199.981 31V28.36L200.053 24.52L199.813 20.704V13.192H203.557V31H199.981Z" fill="white"/>
</svg>
