<svg width="50" height="50" viewBox="0 0 50 50" fill="none" xmlns="http://www.w3.org/2000/svg">
<path fill-rule="evenodd" clip-rule="evenodd" d="M8.33333 18.7498H12.4995C12.5001 19.5134 12.9221 20.2484 13.6516 20.6132C14.6808 21.1278 15.9322 20.7106 16.4467 19.6815L16.9126 18.7498H33.0874L33.5533 19.6815C34.0678 20.7106 35.3192 21.1278 36.3484 20.6132C37.0779 20.2484 37.4999 19.5134 37.5005 18.7498H41.6667V22.9165H8.33333V18.7498ZM35.6626 14.5831H41.6667C43.9678 14.5831 45.8333 16.4486 45.8333 18.7498V22.9165C45.8333 24.6665 44.7544 26.1646 43.2255 26.7818C43.2326 26.8813 43.2362 26.9818 43.2362 27.0831C43.2362 27.3871 43.2029 27.6902 43.137 27.987L39.8963 42.5703C39.4726 44.4768 37.7817 45.8331 35.8288 45.8331H14.1712C12.2183 45.8331 10.5274 44.4768 10.1037 42.5703L6.863 27.987C6.7728 27.5811 6.74515 27.1759 6.77363 26.7814C5.24515 26.164 4.16667 24.6662 4.16667 22.9165V18.7498C4.16667 16.4486 6.03215 14.5831 8.33333 14.5831H14.3374L18.9699 5.31811C19.4845 4.28899 20.7359 3.87185 21.765 4.38642C22.7941 4.90098 23.2113 6.15238 22.6967 7.1815L18.9959 14.5831H31.0041L27.3033 7.1815C26.7887 6.15238 27.2058 4.90098 28.235 4.38642C29.2641 3.87185 30.5155 4.28899 31.0301 5.31811L35.6626 14.5831ZM10.9304 27.0831H39.0695L35.8288 41.6665H14.1712L10.9304 27.0831Z" fill="white"/>
</svg>
