<svg width="31" height="31" viewBox="0 0 31 31" fill="none" xmlns="http://www.w3.org/2000/svg">
<path d="M15.9515 0.499512C7.67154 0.499512 0.951538 7.21951 0.951538 15.4995C0.951538 23.7795 7.67154 30.4995 15.9515 30.4995C24.2315 30.4995 30.9515 23.7795 30.9515 15.4995C30.9515 7.21951 24.2315 0.499512 15.9515 0.499512ZM22.9115 10.6995C22.6865 13.0695 21.7115 18.8295 21.2165 21.4845C21.0065 22.6095 20.5865 22.9845 20.1965 23.0295C19.3265 23.1045 18.6665 22.4595 17.8265 21.9045C16.5065 21.0345 15.7565 20.4945 14.4815 19.6545C12.9965 18.6795 13.9565 18.1395 14.8115 17.2695C15.0365 17.0445 18.8765 13.5495 18.9515 13.2345C18.962 13.1868 18.9606 13.1373 18.9475 13.0902C18.9344 13.0432 18.9101 13 18.8765 12.9645C18.7865 12.8895 18.6665 12.9195 18.5615 12.9345C18.4265 12.9645 16.3265 14.3595 12.2315 17.1195C11.6315 17.5245 11.0915 17.7345 10.6115 17.7195C10.0715 17.7045 9.05154 17.4195 8.28654 17.1645C7.34154 16.8645 6.60654 16.6995 6.66654 16.1745C6.69654 15.9045 7.07154 15.6345 7.77654 15.3495C12.1565 13.4445 15.0665 12.1845 16.5215 11.5845C20.6915 9.84451 21.5465 9.54451 22.1165 9.54451C22.2365 9.54451 22.5215 9.57451 22.7015 9.72451C22.8515 9.84451 22.8965 10.0095 22.9115 10.1295C22.8965 10.2195 22.9265 10.4895 22.9115 10.6995Z" fill="#FF31F7"/>
</svg>
