<svg width="31" height="31" viewBox="0 0 31 31" fill="none" xmlns="http://www.w3.org/2000/svg">
<path fill-rule="evenodd" clip-rule="evenodd" d="M23.5752 1.27244C18.5542 0.241868 13.3474 0.241868 8.32639 1.27244L7.78538 1.38235C6.37304 1.67229 5.07588 2.31607 4.038 3.24216C3.00012 4.16826 2.26216 5.34042 1.90609 6.62843C0.633355 11.2334 0.633355 16.0574 1.90609 20.6624C2.24566 21.8908 2.9329 23.0149 3.89814 23.9208C4.86338 24.8266 6.07231 25.482 7.40236 25.8206L8.14445 29.8885C8.16814 30.0177 8.22911 30.1386 8.32101 30.2388C8.41292 30.339 8.53239 30.4147 8.66699 30.4581C8.80159 30.5015 8.94641 30.511 9.08635 30.4856C9.22628 30.4601 9.35624 30.4007 9.46267 30.3134L13.8211 26.7335C17.0928 26.9168 20.3764 26.6766 23.5752 26.0199L24.1178 25.91C25.5301 25.62 26.8273 24.9762 27.8652 24.0502C28.9031 23.1241 29.641 21.9519 29.9971 20.6639C31.2697 16.0589 31.2697 11.2349 29.9971 6.62989C29.6409 5.3417 28.9027 4.16941 27.8645 3.2433C26.8263 2.31718 25.5288 1.67351 24.1162 1.38381L23.5752 1.27244ZM9.67333 6.50973C9.37672 6.47009 9.07428 6.52491 8.81633 6.66506H8.79399C8.19552 6.98745 7.65611 7.39336 7.19649 7.87107C6.81348 8.27698 6.60601 8.68729 6.55175 9.08295C6.51983 9.31741 6.54217 9.5548 6.61718 9.779L6.64591 9.79366C7.0768 10.9557 7.63856 12.0738 8.32479 13.1259C9.20964 14.6038 10.2985 15.9705 11.5645 17.1924L11.6028 17.2422L11.6634 17.2832L11.7001 17.3228L11.7448 17.358C13.0801 18.5239 14.5721 19.5285 16.1846 20.3474C18.0279 21.2691 19.1466 21.7043 19.8184 21.886V21.8948C20.0147 21.9505 20.1935 21.9754 20.3738 21.9754C20.946 21.9366 21.4876 21.723 21.9123 21.3687C22.4309 20.9467 22.8698 20.4499 23.2113 19.8975V19.8872C23.5321 19.3304 23.4236 18.8058 22.9608 18.4497C22.0312 17.7039 21.0259 17.0414 19.9589 16.4714C19.2439 16.1153 18.5178 16.3307 18.2241 16.6912L17.597 17.4181C17.2746 17.7785 16.6905 17.7287 16.6905 17.7287L16.6745 17.7375C12.3161 16.7161 11.1527 12.6643 11.1527 12.6643C11.1527 12.6643 11.0985 12.1134 11.5022 11.832L12.2874 11.2517C12.664 10.9704 12.9258 10.3051 12.522 9.64859C11.9054 8.66789 11.1853 7.74516 10.3723 6.89366C10.195 6.69326 9.94633 6.55678 9.67013 6.50827L9.67333 6.50973ZM17.0368 4.74834C16.8252 4.74834 16.6222 4.82553 16.4726 4.96294C16.3229 5.10034 16.2389 5.28671 16.2389 5.48103C16.2389 5.67535 16.3229 5.86171 16.4726 5.99912C16.6222 6.13653 16.8252 6.21372 17.0368 6.21372C19.0556 6.21372 20.7313 6.81893 22.0575 7.97951C22.7389 8.61402 23.2704 9.36577 23.6183 10.1893C23.9678 11.0143 24.1274 11.895 24.0859 12.7772C24.0815 12.8734 24.0978 12.9695 24.1338 13.0599C24.1698 13.1504 24.2249 13.2334 24.2959 13.3043C24.4393 13.4475 24.6387 13.5325 24.8503 13.5406C25.0619 13.5488 25.2684 13.4794 25.4244 13.3478C25.5803 13.2162 25.6729 13.0331 25.6818 12.8387C25.7313 11.7536 25.5351 10.6708 25.1057 9.65884C24.6743 8.64206 24.0204 7.71738 23.1842 6.94202L23.1682 6.92736C21.5229 5.48396 19.4402 4.74834 17.0368 4.74834ZM16.9825 7.15743C16.7709 7.15743 16.5679 7.23462 16.4183 7.37203C16.2687 7.50944 16.1846 7.6958 16.1846 7.89012C16.1846 8.08445 16.2687 8.27081 16.4183 8.40822C16.5679 8.54562 16.7709 8.62282 16.9825 8.62282H17.0097C18.4651 8.71807 19.5248 9.16354 20.2669 9.89477C21.0281 10.648 21.4223 11.5844 21.392 12.742C21.3871 12.9363 21.4665 13.1245 21.6127 13.265C21.7589 13.4056 21.96 13.4871 22.1716 13.4916C22.3832 13.496 22.5881 13.4231 22.7412 13.2889C22.8943 13.1546 22.983 12.97 22.9879 12.7757C23.0262 11.2561 22.4932 9.94459 21.4367 8.89831V8.89538C20.3563 7.83151 18.8737 7.2688 17.0895 7.1589L17.0623 7.15597L16.9825 7.15743ZM16.9522 9.61195C16.8454 9.6033 16.7378 9.61449 16.6359 9.64487C16.5339 9.67524 16.4396 9.72417 16.3587 9.78873C16.2778 9.8533 16.2119 9.93217 16.1649 10.0206C16.1179 10.1091 16.0908 10.2054 16.0852 10.3037C16.0796 10.402 16.0957 10.5003 16.1324 10.5928C16.1691 10.6853 16.2258 10.77 16.2989 10.8419C16.3721 10.9139 16.4603 10.9715 16.5583 11.0115C16.6563 11.0514 16.762 11.0728 16.8692 11.0744C17.5363 11.1066 17.9624 11.2913 18.2305 11.5389C18.5002 11.788 18.7013 12.1881 18.738 12.8138C18.74 12.9121 18.7635 13.0091 18.8072 13.0989C18.8509 13.1887 18.9138 13.2695 18.9922 13.3365C19.0706 13.4035 19.1629 13.4553 19.2635 13.4889C19.3642 13.5225 19.4712 13.5371 19.5782 13.5319C19.6851 13.5266 19.7898 13.5017 19.8861 13.4585C19.9823 13.4154 20.0681 13.3549 20.1383 13.2806C20.2085 13.2064 20.2618 13.1199 20.2948 13.0264C20.3279 12.9328 20.3401 12.8341 20.3307 12.7362C20.2797 11.8569 19.9796 11.0803 19.3652 10.5088C18.7476 9.93727 17.9066 9.65884 16.9522 9.61195Z" fill="#FF31F7"/>
</svg>
