<svg width="865" height="133" viewBox="0 0 865 133" fill="none" xmlns="http://www.w3.org/2000/svg">
<g filter="url(#filter0_d_1_208)">
<path d="M15 106.134V16.5337H56.728C67.1387 16.5337 75.2453 18.539 81.048 22.5497C86.8507 26.5603 89.752 32.2777 89.752 39.7017C89.752 47.0403 87.0213 52.7577 81.56 56.8537C76.0987 60.8643 68.8453 62.8697 59.8 62.8697L62.232 57.4937C72.3013 57.4937 80.1093 59.499 85.656 63.5097C91.2027 67.5203 93.976 73.323 93.976 80.9177C93.976 88.7683 90.9893 94.955 85.016 99.4777C79.128 103.915 70.5093 106.134 59.16 106.134H15ZM35.608 90.7737H58.392C63.1707 90.7737 66.7973 89.835 69.272 87.9577C71.7467 86.0803 72.984 83.179 72.984 79.2537C72.984 75.499 71.7467 72.7257 69.272 70.9337C66.7973 69.0563 63.1707 68.1177 58.392 68.1177H35.608V90.7737ZM35.608 53.6537H54.936C59.4587 53.6537 62.872 52.7577 65.176 50.9657C67.48 49.0883 68.632 46.3577 68.632 42.7737C68.632 39.1897 67.48 36.5017 65.176 34.7097C62.872 32.8323 59.4587 31.8937 54.936 31.8937H35.608V53.6537Z" fill="#FF31F7"/>
<path d="M152.767 45.9737C163.604 45.9737 171.967 48.4057 177.855 53.2697C183.743 58.0483 186.687 65.259 186.687 74.9017C186.687 85.1417 183.402 92.907 176.831 98.1977C170.346 103.488 161.343 106.134 149.823 106.134H109.375V16.5337H129.983V45.9737H152.767ZM148.671 90.7737C153.962 90.7737 158.143 89.451 161.215 86.8057C164.287 84.1603 165.823 80.3203 165.823 75.2857C165.823 70.3363 164.287 66.795 161.215 64.6617C158.228 62.443 154.047 61.3337 148.671 61.3337H129.983V90.7737H148.671ZM198.079 106.134V16.5337H218.687V106.134H198.079Z" fill="#FF31F7"/>
<path d="M240 106.134V16.5337H281.728C292.139 16.5337 300.245 18.539 306.048 22.5497C311.851 26.5603 314.752 32.2777 314.752 39.7017C314.752 47.0403 312.021 52.7577 306.56 56.8537C301.099 60.8643 293.845 62.8697 284.8 62.8697L287.232 57.4937C297.301 57.4937 305.109 59.499 310.656 63.5097C316.203 67.5203 318.976 73.323 318.976 80.9177C318.976 88.7683 315.989 94.955 310.016 99.4777C304.128 103.915 295.509 106.134 284.16 106.134H240ZM260.608 90.7737H283.392C288.171 90.7737 291.797 89.835 294.272 87.9577C296.747 86.0803 297.984 83.179 297.984 79.2537C297.984 75.499 296.747 72.7257 294.272 70.9337C291.797 69.0563 288.171 68.1177 283.392 68.1177H260.608V90.7737ZM260.608 53.6537H279.936C284.459 53.6537 287.872 52.7577 290.176 50.9657C292.48 49.0883 293.632 46.3577 293.632 42.7737C293.632 39.1897 292.48 36.5017 290.176 34.7097C287.872 32.8323 284.459 31.8937 279.936 31.8937H260.608V53.6537Z" fill="#FF31F7"/>
<path d="M353.447 52.6297L551.832 52.6296V68.7576L353.447 68.7577V52.6297ZM354.983 89.4937L559 89.4936V106.134L334.375 106.134V16.5337L557.336 16.5336V33.1736L354.983 33.1737V89.4937Z" fill="#FF31F7"/>
<path d="M617.427 107.672C610.515 107.672 604.072 106.563 598.099 104.344C592.211 102.04 587.091 98.7974 582.739 94.616C578.387 90.4347 574.974 85.528 572.499 79.896C570.11 74.264 568.915 68.0774 568.915 61.336C568.915 54.5947 570.11 48.408 572.499 42.776C574.974 37.144 578.387 32.2374 582.739 28.056C587.176 23.8747 592.339 20.6747 598.227 18.456C604.115 16.152 610.558 15 617.555 15C625.32 15 632.318 16.3654 638.547 19.096C644.862 21.7414 650.152 25.6667 654.419 30.872L641.107 43.16C638.035 39.6614 634.622 37.0587 630.867 35.352C627.112 33.56 623.016 32.664 618.579 32.664C614.398 32.664 610.558 33.3467 607.059 34.712C603.56 36.0774 600.531 38.04 597.971 40.6C595.411 43.16 593.406 46.1894 591.955 49.688C590.59 53.1867 589.907 57.0694 589.907 61.336C589.907 65.6027 590.59 69.4854 591.955 72.984C593.406 76.4827 595.411 79.512 597.971 82.072C600.531 84.632 603.56 86.5947 607.059 87.96C610.558 89.3254 614.398 90.008 618.579 90.008C623.016 90.008 627.112 89.1547 630.867 87.448C634.622 85.656 638.035 82.968 641.107 79.384L654.419 91.672C650.152 96.8774 644.862 100.845 638.547 103.576C632.318 106.307 625.278 107.672 617.427 107.672Z" fill="#FF31F7"/>
<path d="M724.918 106.136L697.014 63L713.782 52.888L748.47 106.136H724.918ZM666.678 106.136V16.536H687.286V106.136H666.678ZM681.27 70.04V52.76H712.502V70.04H681.27ZM715.702 63.64L696.63 61.336L725.686 16.536H747.574L715.702 63.64Z" fill="#FF31F7"/>
<path d="M757.184 106.136V16.536H777.792V74.904L820.544 16.536H840V106.136H819.52V47.896L776.768 106.136H757.184Z" fill="#FF31F7"/>
</g>
<defs>
<filter id="filter0_d_1_208" x="0" y="0" width="865" height="132.672" filterUnits="userSpaceOnUse" color-interpolation-filters="sRGB">
<feFlood flood-opacity="0" result="BackgroundImageFix"/>
<feColorMatrix in="SourceAlpha" type="matrix" values="0 0 0 0 0 0 0 0 0 0 0 0 0 0 0 0 0 0 127 0" result="hardAlpha"/>
<feOffset dx="5" dy="5"/>
<feGaussianBlur stdDeviation="10"/>
<feComposite in2="hardAlpha" operator="out"/>
<feColorMatrix type="matrix" values="0 0 0 0 1 0 0 0 0 0.192157 0 0 0 0 0.968627 0 0 0 1 0"/>
<feBlend mode="normal" in2="BackgroundImageFix" result="effect1_dropShadow_1_208"/>
<feBlend mode="normal" in="SourceGraphic" in2="effect1_dropShadow_1_208" result="shape"/>
</filter>
</defs>
</svg>
